<svg width="24" height="24" viewBox="0 0 24 24" fill="none" xmlns="http://www.w3.org/2000/svg">
<path d="M6 9.59722H8.4C8.71826 9.59722 9.02348 9.47083 9.24853 9.24585C9.47357 9.02087 9.6 8.71573 9.6 8.39757C9.6 8.0794 9.47357 7.77426 9.24853 7.54928C9.02348 7.32431 8.71826 7.19791 8.4 7.19791H6C5.68174 7.19791 5.37652 7.32431 5.15147 7.54928C4.92643 7.77426 4.8 8.0794 4.8 8.39757C4.8 8.71573 4.92643 9.02087 5.15147 9.24585C5.37652 9.47083 5.68174 9.59722 6 9.59722ZM22.8 2.3993H13.2V1.19965C13.2 0.881485 13.0736 0.576348 12.8485 0.35137C12.6235 0.126392 12.3183 0 12 0C11.6817 0 11.3765 0.126392 11.1515 0.35137C10.9264 0.576348 10.8 0.881485 10.8 1.19965V2.3993H1.2C0.88174 2.3993 0.576515 2.5257 0.351472 2.75067C0.126428 2.97565 0 3.28079 0 3.59896V15.5955C0 16.55 0.379285 17.4654 1.05442 18.1403C1.72955 18.8153 2.64522 19.1944 3.6 19.1944H9.108L6.348 21.9416C6.23553 22.0532 6.14625 22.1858 6.08533 22.332C6.02441 22.4782 5.99304 22.635 5.99304 22.7934C5.99304 22.9518 6.02441 23.1086 6.08533 23.2547C6.14625 23.4009 6.23553 23.5336 6.348 23.6451C6.45956 23.7576 6.59228 23.8468 6.73851 23.9077C6.88474 23.9686 7.04159 24 7.2 24C7.35841 24 7.51526 23.9686 7.66149 23.9077C7.80772 23.8468 7.94044 23.7576 8.052 23.6451L10.8 20.8859V22.7934C10.8 23.1116 10.9264 23.4167 11.1515 23.6417C11.3765 23.8667 11.6817 23.993 12 23.993C12.3183 23.993 12.6235 23.8667 12.8485 23.6417C13.0736 23.4167 13.2 23.1116 13.2 22.7934V20.8859L15.948 23.6451C16.0596 23.7576 16.1923 23.8468 16.3385 23.9077C16.4847 23.9686 16.6416 24 16.8 24C16.9584 24 17.1153 23.9686 17.2615 23.9077C17.4077 23.8468 17.5404 23.7576 17.652 23.6451C17.7645 23.5336 17.8537 23.4009 17.9147 23.2547C17.9756 23.1086 18.007 22.9518 18.007 22.7934C18.007 22.635 17.9756 22.4782 17.9147 22.332C17.8537 22.1858 17.7645 22.0532 17.652 21.9416L14.892 19.1944H20.4C21.3548 19.1944 22.2705 18.8153 22.9456 18.1403C23.6207 17.4654 24 16.55 24 15.5955V3.59896C24 3.28079 23.8736 2.97565 23.6485 2.75067C23.4235 2.5257 23.1183 2.3993 22.8 2.3993ZM21.6 15.5955C21.6 15.9136 21.4736 16.2188 21.2485 16.4438C21.0235 16.6687 20.7183 16.7951 20.4 16.7951H3.6C3.28174 16.7951 2.97652 16.6687 2.75147 16.4438C2.52643 16.2188 2.4 15.9136 2.4 15.5955V4.79861H21.6V15.5955ZM6 14.3958H13.2C13.5183 14.3958 13.8235 14.2694 14.0485 14.0445C14.2736 13.8195 14.4 13.5143 14.4 13.1962C14.4 12.878 14.2736 12.5729 14.0485 12.3479C13.8235 12.1229 13.5183 11.9965 13.2 11.9965H6C5.68174 11.9965 5.37652 12.1229 5.15147 12.3479C4.92643 12.5729 4.8 12.878 4.8 13.1962C4.8 13.5143 4.92643 13.8195 5.15147 14.0445C5.37652 14.2694 5.68174 14.3958 6 14.3958Z" fill="#AAAAAA"/>
</svg>
