<svg width="14" height="14" viewBox="0 0 14 14" fill="none" xmlns="http://www.w3.org/2000/svg">
<path d="M7.00007 8.71387C7.94684 8.71387 8.71435 7.94635 8.71435 6.99958C8.71435 6.05281 7.94684 5.2853 7.00007 5.2853C6.0533 5.2853 5.28578 6.05281 5.28578 6.99958C5.28578 7.94635 6.0533 8.71387 7.00007 8.71387Z" stroke="#747880" stroke-linecap="round" stroke-linejoin="round"/>
<path d="M11.2286 8.71387C11.1526 8.88622 11.1299 9.07741 11.1635 9.26277C11.1971 9.44814 11.2855 9.61919 11.4172 9.75387L11.4515 9.78815C11.5578 9.89429 11.6421 10.0203 11.6996 10.1591C11.7571 10.2978 11.7867 10.4465 11.7867 10.5967C11.7867 10.7469 11.7571 10.8956 11.6996 11.0344C11.6421 11.1731 11.5578 11.2992 11.4515 11.4053C11.3454 11.5116 11.2193 11.5958 11.0806 11.6534C10.9418 11.7109 10.7931 11.7405 10.6429 11.7405C10.4927 11.7405 10.344 11.7109 10.2053 11.6534C10.0665 11.5958 9.9405 11.5116 9.83435 11.4053L9.80007 11.371C9.6654 11.2393 9.49435 11.1509 9.30898 11.1173C9.12361 11.0837 8.93242 11.1064 8.76007 11.1824C8.59106 11.2549 8.44692 11.3751 8.34539 11.5285C8.24386 11.6818 8.18937 11.8614 8.18864 12.0453V12.1424C8.18864 12.4455 8.06823 12.7362 7.85391 12.9506C7.63958 13.1649 7.34889 13.2853 7.04578 13.2853C6.74268 13.2853 6.45199 13.1649 6.23766 12.9506C6.02333 12.7362 5.90293 12.4455 5.90293 12.1424V12.091C5.8985 11.9019 5.83728 11.7184 5.72722 11.5646C5.61716 11.4107 5.46335 11.2935 5.28578 11.2282C5.11343 11.1521 4.92224 11.1294 4.73688 11.163C4.55151 11.1966 4.38046 11.285 4.24578 11.4167L4.2115 11.451C4.10536 11.5573 3.97931 11.6416 3.84057 11.6991C3.70183 11.7566 3.55312 11.7862 3.40293 11.7862C3.25274 11.7862 3.10402 11.7566 2.96528 11.6991C2.82654 11.6416 2.7005 11.5573 2.59436 11.451C2.4881 11.3449 2.4038 11.2188 2.34629 11.0801C2.28877 10.9413 2.25917 10.7926 2.25917 10.6424C2.25917 10.4922 2.28877 10.3435 2.34629 10.2048C2.4038 10.0661 2.4881 9.94001 2.59436 9.83387L2.62864 9.79958C2.76038 9.66491 2.84875 9.49386 2.88236 9.30849C2.91597 9.12312 2.89328 8.93193 2.81721 8.75958C2.74478 8.59057 2.6245 8.44643 2.47119 8.3449C2.31788 8.24337 2.13823 8.18889 1.95436 8.18815H1.85721C1.55411 8.18815 1.26342 8.06774 1.04909 7.85342C0.834763 7.63909 0.714355 7.3484 0.714355 7.0453C0.714355 6.74219 0.834763 6.4515 1.04909 6.23717C1.26342 6.02285 1.55411 5.90244 1.85721 5.90244H1.90864C2.09778 5.89801 2.28122 5.83679 2.4351 5.72673C2.58898 5.61667 2.70619 5.46286 2.7715 5.2853C2.84756 5.11294 2.87025 4.92176 2.83664 4.73639C2.80303 4.55102 2.71466 4.37997 2.58293 4.2453L2.54864 4.21101C2.44238 4.10487 2.35809 3.97883 2.30057 3.84008C2.24306 3.70134 2.21346 3.55263 2.21346 3.40244C2.21346 3.25225 2.24306 3.10353 2.30057 2.96479C2.35809 2.82605 2.44238 2.70001 2.54864 2.59387C2.65478 2.48761 2.78083 2.40331 2.91957 2.3458C3.05831 2.28829 3.20702 2.25868 3.35721 2.25868C3.5074 2.25868 3.65612 2.28829 3.79486 2.3458C3.9336 2.40331 4.05964 2.48761 4.16578 2.59387L4.20007 2.62815C4.33474 2.75989 4.50579 2.84826 4.69116 2.88187C4.87653 2.91548 5.06772 2.89279 5.24007 2.81672H5.28578C5.45479 2.74429 5.59894 2.62401 5.70047 2.4707C5.80199 2.3174 5.85648 2.13775 5.85721 1.95387V1.85672C5.85721 1.55362 5.97762 1.26293 6.19195 1.0486C6.40627 0.834275 6.69696 0.713867 7.00007 0.713867C7.30317 0.713867 7.59386 0.834275 7.80819 1.0486C8.02252 1.26293 8.14293 1.55362 8.14293 1.85672V1.90815C8.14366 2.09203 8.19814 2.27168 8.29967 2.42499C8.4012 2.5783 8.54534 2.69857 8.71435 2.77101C8.88671 2.84708 9.07789 2.86977 9.26326 2.83616C9.44863 2.80254 9.61968 2.71417 9.75435 2.58244L9.78864 2.54815C9.89478 2.44189 10.0208 2.3576 10.1596 2.30008C10.2983 2.24257 10.447 2.21297 10.5972 2.21297C10.7474 2.21297 10.8961 2.24257 11.0349 2.30008C11.1736 2.3576 11.2996 2.44189 11.4058 2.54815C11.512 2.65429 11.5963 2.78034 11.6539 2.91908C11.7114 3.05782 11.741 3.20654 11.741 3.35672C11.741 3.50691 11.7114 3.65563 11.6539 3.79437C11.5963 3.93311 11.512 4.05915 11.4058 4.1653L11.3715 4.19958C11.2398 4.33425 11.1514 4.5053 11.1178 4.69067C11.0842 4.87604 11.1069 5.06723 11.1829 5.23958V5.2853C11.2554 5.45431 11.3756 5.59845 11.5289 5.69998C11.6823 5.80151 11.8619 5.85599 12.0458 5.85672H12.1429C12.446 5.85672 12.7367 5.97713 12.951 6.19146C13.1654 6.40579 13.2858 6.69648 13.2858 6.99958C13.2858 7.30269 13.1654 7.59338 12.951 7.8077C12.7367 8.02203 12.446 8.14244 12.1429 8.14244H12.0915C11.9076 8.14317 11.728 8.19766 11.5747 8.29919C11.4214 8.40071 11.3011 8.54486 11.2286 8.71387Z" stroke="#747880" stroke-linecap="round" stroke-linejoin="round"/>
</svg>
