<svg width="14" height="14" viewBox="0 0 14 14" fill="none" xmlns="http://www.w3.org/2000/svg">
<path d="M12.263 9.22279C11.8995 10.0825 11.3309 10.8401 10.6069 11.4292C9.883 12.0184 9.02574 12.4213 8.11013 12.6027C7.19451 12.784 6.2484 12.7383 5.35453 12.4695C4.46066 12.2008 3.64623 11.7171 2.98246 11.0609C2.31868 10.4046 1.82577 9.59579 1.54681 8.70504C1.26785 7.8143 1.21134 6.86878 1.38222 5.95115C1.55309 5.03352 1.94616 4.17172 2.52704 3.44109C3.10793 2.71046 3.85895 2.13325 4.71445 1.75993M12.7144 6.99993C12.7144 6.24952 12.5666 5.50646 12.2795 4.81317C11.9923 4.11988 11.5714 3.48994 11.0408 2.95932C10.5102 2.4287 9.88021 2.00779 9.18692 1.72062C8.49364 1.43345 7.75057 1.28564 7.00016 1.28564V6.99993H12.7144Z" stroke="#DDE2FF" stroke-linecap="round" stroke-linejoin="round"/>
</svg>
