<svg width="14" height="14" viewBox="0 0 14 14" fill="none" xmlns="http://www.w3.org/2000/svg">
<path d="M1.46853 3.52469L6.99996 6.2904M6.99996 6.2904L12.5314 3.52469M6.99996 6.2904L6.99996 13.0104M4.14282 2.00469L9.8571 4.86183M7.50853 0.833261L12.08 3.11898C12.2704 3.21359 12.4306 3.35945 12.5427 3.54014C12.6547 3.72084 12.7141 3.92921 12.7142 4.14183V9.58755C12.7141 9.80017 12.6547 10.0085 12.5427 10.1892C12.4306 10.3699 12.2704 10.5158 12.08 10.6104L7.50853 12.8961C7.34975 12.9756 7.17465 13.0169 6.9971 13.0169C6.81955 13.0169 6.64445 12.9756 6.48567 12.8961L1.91424 10.6104C1.72403 10.5146 1.56439 10.3675 1.45332 10.1857C1.34226 10.004 1.28419 9.79482 1.28567 9.58183V4.14183C1.28579 3.92921 1.34521 3.72084 1.45726 3.54014C1.56931 3.35945 1.72955 3.21359 1.91996 3.11898L6.49139 0.833261C6.64942 0.754733 6.82349 0.713867 6.99996 0.713867C7.17643 0.713867 7.3505 0.754733 7.50853 0.833261Z" stroke="#D6D7DA" stroke-linecap="round" stroke-linejoin="round"/>
</svg>
