<svg width="157" height="192" viewBox="0 0 157 192" fill="none" xmlns="http://www.w3.org/2000/svg">
<path d="M134.785 88.5859C142.449 94.5469 148.268 102.069 152.242 111.152C156.216 119.952 157.635 129.461 156.5 139.68C155.081 154.44 148.552 166.788 136.914 176.723C125.276 186.658 111.793 191.625 96.4648 191.625H7.47656C5.48958 191.625 3.78646 190.915 2.36719 189.496C1.23177 188.361 0.664062 186.799 0.664062 184.812V164.375C0.664062 162.388 1.23177 160.827 2.36719 159.691C3.78646 158.272 5.48958 157.562 7.47656 157.562H21.1016V34.9375H7.47656C5.48958 34.9375 3.78646 34.3698 2.36719 33.2344C1.23177 31.8151 0.664062 30.112 0.664062 28.125V7.6875C0.664062 5.70052 1.23177 4.13932 2.36719 3.00391C3.78646 1.58464 5.48958 0.875 7.47656 0.875H92.207C108.387 0.875 121.87 6.83594 132.656 18.7578C143.443 30.6797 147.984 44.7305 146.281 60.9102C145.43 71.1289 141.598 80.3542 134.785 88.5859ZM55.1641 34.9375V75.8125H92.207C97.8841 75.8125 102.71 73.8255 106.684 69.8516C110.658 65.8776 112.645 61.0521 112.645 55.375C112.645 49.6979 110.658 44.8724 106.684 40.8984C102.71 36.9245 97.8841 34.9375 92.207 34.9375H55.1641ZM92.207 157.562C99.0195 157.562 104.697 155.292 109.238 150.75C113.78 145.924 116.051 140.247 116.051 133.719C116.051 127.19 113.78 121.655 109.238 117.113C104.697 112.288 99.0195 109.875 92.207 109.875H55.1641V157.562H92.207Z" fill="#2F0877"/>
</svg>
