<svg width="273" height="218" viewBox="0 0 273 218" fill="none" xmlns="http://www.w3.org/2000/svg">
<path d="M143.062 177.125C145.049 177.125 146.611 177.835 147.746 179.254C149.165 180.389 149.875 181.951 149.875 183.938V197.562C149.875 199.549 149.165 201.111 147.746 202.246C146.611 203.665 145.049 204.375 143.062 204.375H88.5625C86.5755 204.375 84.8724 203.665 83.4531 202.246C82.3177 201.111 81.75 199.549 81.75 197.562V183.938C81.75 181.951 82.3177 180.389 83.4531 179.254C84.8724 177.835 86.5755 177.125 88.5625 177.125H102.188L113.684 143.062L142.211 165.203L138.379 177.125H143.062ZM269.945 195.008C271.648 196.427 272.5 198.272 272.5 200.543C272.5 201.962 272.074 203.382 271.223 204.801L262.707 215.445C261.288 217.148 259.443 218 257.172 218C255.753 218 254.475 217.574 253.34 216.723L2.55469 22.9922C0.851562 21.5729 0 19.7279 0 17.457C0 16.0378 0.425781 14.6185 1.27734 13.1992L9.79297 2.55469C11.2122 0.851562 13.0573 0 15.3281 0C16.7474 0 18.0247 0.425781 19.1602 1.27734L68.125 39.1719V20.4375C68.125 18.4505 68.6927 16.8893 69.8281 15.7539C71.2474 14.3346 72.9505 13.625 74.9375 13.625H252.062C254.049 13.625 255.611 14.3346 256.746 15.7539C258.165 16.8893 258.875 18.4505 258.875 20.4375V61.3125C258.875 63.2995 258.165 65.0026 256.746 66.4219C255.611 67.5573 254.049 68.125 252.062 68.125H238.438C236.451 68.125 234.747 67.5573 233.328 66.4219C232.193 65.0026 231.625 63.2995 231.625 61.3125V47.6875H181.383L160.52 110.703L269.945 195.008ZM131.992 88.5625L145.617 47.6875H95.375V60.0352L131.992 88.5625Z" fill="#2F0877"/>
</svg>
