<svg width="14" height="16" viewBox="0 0 14 16" fill="none" xmlns="http://www.w3.org/2000/svg">
<g filter="url(#filter0_d)">
<path d="M1.96875 3.96484C3.29948 2.63411 4.90365 1.96875 6.78125 1.96875C8.65885 1.96875 10.2539 2.63411 11.5664 3.96484C12.8971 5.27734 13.5625 6.8724 13.5625 8.75C13.5625 10.6276 12.8971 12.2318 11.5664 13.5625C10.2539 14.875 8.65885 15.5312 6.78125 15.5312C4.90365 15.5312 3.29948 14.875 1.96875 13.5625C0.65625 12.2318 0 10.6276 0 8.75C0 6.8724 0.65625 5.27734 1.96875 3.96484ZM9.57031 6.83594C9.40625 6.65365 9.20573 6.5625 8.96875 6.5625C8.73177 6.5625 8.52214 6.65365 8.33984 6.83594C8.17578 7 8.09375 7.20052 8.09375 7.4375C8.09375 7.67448 8.17578 7.88411 8.33984 8.06641C8.52214 8.23047 8.73177 8.3125 8.96875 8.3125C9.20573 8.3125 9.40625 8.23047 9.57031 8.06641C9.7526 7.88411 9.84375 7.67448 9.84375 7.4375C9.84375 7.20052 9.7526 7 9.57031 6.83594ZM5.19531 6.83594C5.03125 6.65365 4.83073 6.5625 4.59375 6.5625C4.35677 6.5625 4.14714 6.65365 3.96484 6.83594C3.80078 7 3.71875 7.20052 3.71875 7.4375C3.71875 7.67448 3.80078 7.88411 3.96484 8.06641C4.14714 8.23047 4.35677 8.3125 4.59375 8.3125C4.83073 8.3125 5.03125 8.23047 5.19531 8.06641C5.3776 7.88411 5.46875 7.67448 5.46875 7.4375C5.46875 7.20052 5.3776 7 5.19531 6.83594ZM9.92578 11.2109C9.9987 11.138 10.0352 11.056 10.0352 10.9648C10.0352 10.8555 10.0078 10.7734 9.95312 10.7188C9.89844 10.6458 9.82552 10.5911 9.73438 10.5547C9.66146 10.5 9.57943 10.4818 9.48828 10.5C9.39714 10.5182 9.3151 10.5729 9.24219 10.6641C8.60417 11.4297 7.78385 11.8125 6.78125 11.8125C5.77865 11.8125 4.95833 11.4297 4.32031 10.6641C4.2474 10.5729 4.16536 10.5182 4.07422 10.5C3.98307 10.4818 3.89193 10.5 3.80078 10.5547C3.72786 10.5911 3.66406 10.6458 3.60938 10.7188C3.55469 10.7734 3.52734 10.8555 3.52734 10.9648C3.52734 11.056 3.5638 11.138 3.63672 11.2109C4.45703 12.1953 5.50521 12.6875 6.78125 12.6875C8.05729 12.6875 9.10547 12.1953 9.92578 11.2109Z" fill="#5F4A87"/>
</g>
<defs>
<filter id="filter0_d" x="0" y="0.96875" width="13.5625" height="14.5625" filterUnits="userSpaceOnUse" color-interpolation-filters="sRGB">
<feFlood flood-opacity="0" result="BackgroundImageFix"/>
<feColorMatrix in="SourceAlpha" type="matrix" values="0 0 0 0 0 0 0 0 0 0 0 0 0 0 0 0 0 0 127 0"/>
<feOffset dy="-1"/>
<feColorMatrix type="matrix" values="0 0 0 0 1 0 0 0 0 1 0 0 0 0 1 0 0 0 1 0"/>
<feBlend mode="normal" in2="BackgroundImageFix" result="effect1_dropShadow"/>
<feBlend mode="normal" in="SourceGraphic" in2="effect1_dropShadow" result="shape"/>
</filter>
</defs>
</svg>
