<svg width="192" height="191" viewBox="0 0 192 191" fill="none" xmlns="http://www.w3.org/2000/svg">
<path d="M122.625 69.0137C133.625 80.2051 139.125 93.6348 139.125 109.303C139.125 124.971 133.625 138.276 122.625 149.219L97.125 174.586C86.125 185.529 72.75 191 57 191C41.25 191 27.75 185.404 16.5 174.213C5.5 163.27 0 149.965 0 134.297C0 118.629 5.5 105.324 16.5 94.3809L30.75 80.2051C32.5 78.4642 34.5 78.0911 36.75 79.0859C39.25 80.0807 40.625 81.8216 40.875 84.3086C41.125 91.0234 42.375 97.6139 44.625 104.08C45.375 106.318 44.875 108.308 43.125 110.049L38.25 115.271C33 120.494 30.25 126.836 30 134.297C30 141.509 32.625 147.727 37.875 152.949C43.125 158.421 49.5 161.156 57 161.156C64.5 161.156 70.875 158.545 76.125 153.322L101.25 128.328C106.5 123.105 109.125 116.764 109.125 109.303C109.125 101.842 106.5 95.5 101.25 90.2773C100 89.0339 98.75 87.9147 97.5 86.9199C95.75 85.9251 94.875 84.4329 94.875 82.4434C94.625 77.9668 96 74.2363 99 71.252L107.25 63.418C109.5 60.931 112 60.6823 114.75 62.6719C117.5 64.6615 120.125 66.7754 122.625 69.0137ZM135 0C150.75 0 164.125 5.5957 175.125 16.7871C186.375 27.7298 192 41.0352 192 56.7031C192 72.3711 186.5 85.6764 175.5 96.6191L161.25 110.795C159.5 112.536 157.375 112.909 154.875 111.914C152.625 110.919 151.375 109.178 151.125 106.691C150.875 99.9766 149.625 93.3861 147.375 86.9199C146.625 84.6816 147.125 82.6921 148.875 80.9512L153.75 75.7285C159 70.5059 161.625 64.2884 161.625 57.0762C161.875 49.6152 159.375 43.2734 154.125 38.0508C148.875 32.5794 142.5 29.8438 135 29.8438C127.5 29.8438 121.125 32.4551 115.875 37.6777L90.75 62.6719C85.5 67.8945 82.875 74.2363 82.875 81.6973C82.875 89.1582 85.5 95.5 90.75 100.723C92 101.966 93.25 103.085 94.5 104.08C96.25 105.075 97.125 106.567 97.125 108.557C97.375 113.033 96 116.764 93 119.748L84.75 127.582C82.5 130.069 80 130.318 77.25 128.328C74.5 126.339 71.875 124.225 69.375 121.986C58.375 110.795 52.875 97.3652 52.875 81.6973C52.875 66.0293 58.375 52.724 69.375 41.7813L94.875 16.4141C105.875 5.47135 119.25 0 135 0Z" fill="#2F0877"/>
</svg>
