<svg width="137" height="191" viewBox="0 0 137 191" fill="none" xmlns="http://www.w3.org/2000/svg">
<path d="M136.25 6.8125V20.4375C136.25 22.4245 135.54 24.1276 134.121 25.5469C132.986 26.6823 131.424 27.25 129.438 27.25H102.613L68.5508 163.5H88.5625C90.5495 163.5 92.1107 164.21 93.2461 165.629C94.6654 166.764 95.375 168.326 95.375 170.312V183.938C95.375 185.924 94.6654 187.486 93.2461 188.621C92.1107 190.04 90.5495 190.75 88.5625 190.75H6.8125C4.82552 190.75 3.1224 190.04 1.70312 188.621C0.567708 187.486 0 185.924 0 183.938V170.312C0 168.326 0.567708 166.764 1.70312 165.629C3.1224 164.21 4.82552 163.5 6.8125 163.5H33.6367L67.6992 27.25H47.6875C45.7005 27.25 43.9974 26.6823 42.5781 25.5469C41.4427 24.1276 40.875 22.4245 40.875 20.4375V6.8125C40.875 4.82552 41.4427 3.26432 42.5781 2.12891C43.9974 0.709635 45.7005 0 47.6875 0H129.438C131.424 0 132.986 0.709635 134.121 2.12891C135.54 3.26432 136.25 4.82552 136.25 6.8125Z" fill="#2F0877"/>
</svg>
