<svg width="192" height="191" viewBox="0 0 192 191" fill="none" xmlns="http://www.w3.org/2000/svg">
<path d="M184.929 163.714C186.918 163.714 188.481 164.425 189.618 165.846C191.039 166.983 191.75 168.546 191.75 170.536V184.179C191.75 186.168 191.039 187.731 189.618 188.868C188.481 190.289 186.918 191 184.929 191H7.57143C5.58185 191 3.87649 190.289 2.45536 188.868C1.31845 187.731 0.75 186.168 0.75 184.179V170.536C0.75 168.546 1.31845 166.983 2.45536 165.846C3.87649 164.425 5.58185 163.714 7.57143 163.714H184.929ZM184.929 109.143C186.918 109.143 188.481 109.853 189.618 111.275C191.039 112.411 191.75 113.975 191.75 115.964V129.607C191.75 131.597 191.039 133.302 189.618 134.723C188.481 135.86 186.918 136.429 184.929 136.429H7.57143C5.58185 136.429 3.87649 135.86 2.45536 134.723C1.31845 133.302 0.75 131.597 0.75 129.607V115.964C0.75 113.975 1.31845 112.411 2.45536 111.275C3.87649 109.853 5.58185 109.143 7.57143 109.143H184.929ZM184.929 54.5714C186.918 54.5714 188.481 55.282 189.618 56.7031C191.039 57.84 191.75 59.4033 191.75 61.3929V75.0357C191.75 77.0253 191.039 78.7307 189.618 80.1518C188.481 81.2887 186.918 81.8571 184.929 81.8571H7.57143C5.58185 81.8571 3.87649 81.2887 2.45536 80.1518C1.31845 78.7307 0.75 77.0253 0.75 75.0357V61.3929C0.75 59.4033 1.31845 57.84 2.45536 56.7031C3.87649 55.282 5.58185 54.5714 7.57143 54.5714H184.929ZM184.929 0C186.918 0 188.481 0.710565 189.618 2.1317C191.039 3.2686 191.75 4.83185 191.75 6.82143V20.4643C191.75 22.4539 191.039 24.1592 189.618 25.5804C188.481 26.7173 186.918 27.2857 184.929 27.2857H7.57143C5.58185 27.2857 3.87649 26.7173 2.45536 25.5804C1.31845 24.1592 0.75 22.4539 0.75 20.4643V6.82143C0.75 4.83185 1.31845 3.2686 2.45536 2.1317C3.87649 0.710565 5.58185 0 7.57143 0H184.929Z" fill="#2F0877"/>
</svg>
