<svg width="134" height="40" viewBox="0 0 134 40" fill="none" xmlns="http://www.w3.org/2000/svg">
<rect x="116" y="6" width="8" height="4" rx="2" fill="#DA222B"/>
<rect x="116" y="11" width="16" height="4" rx="2" fill="#FFB800"/>
<rect x="116" y="16" width="12" height="4" rx="2" fill="#26C740"/>
<rect x="116" y="21" width="18" height="4" rx="2" fill="#0EA2D0"/>
<path fill-rule="evenodd" clip-rule="evenodd" d="M32.8721 1.79388L31.2691 4.65625C31.049 5.04657 30.609 5.27426 30.2003 5.17668L28.8802 4.94899C28.2201 4.85141 27.8429 4.13582 28.0629 3.51781L28.7544 1.59872C29.0688 0.753023 29.8546 0.200066 30.7347 0.200066H31.9606C32.7464 0.167539 33.2493 1.07829 32.8721 1.79388Z" fill="#2F0A77"/>
<path d="M35.4126 10.3899L35.4126 10.39L35.4166 10.3972C36.1486 11.6974 36.5 13.261 36.5 15.212C36.5 16.9826 36.0958 18.4821 35.3614 19.726C34.6259 20.9717 33.6119 21.9096 32.3101 22.5479L32.3101 22.5479L32.3062 22.5498C31.0293 23.1898 29.5384 23.5024 27.8792 23.5024C25.3252 23.5024 23.3104 22.7575 21.7878 21.3341C20.2872 19.9314 19.5 17.844 19.5 15.0174C19.5 13.2463 19.9045 11.7123 20.6412 10.434C21.3792 9.15374 22.3968 8.18269 23.672 7.5131C24.953 6.84052 26.3821 6.5 28 6.5C29.7198 6.5 31.1765 6.81261 32.4488 7.48066L32.4487 7.48074L32.4572 7.48497C33.7205 8.11816 34.7041 9.08111 35.4126 10.3899ZM30.4983 18.1919L30.4993 18.1906C31.0847 17.4833 31.3698 16.4427 31.3389 15.1733C31.3381 13.9431 31.0832 12.8693 30.5338 12.0209L30.5339 12.0208L30.526 12.0093C29.9311 11.1449 29.1207 10.6574 28.0604 10.6574C27.0192 10.6574 26.1371 11.0391 25.5168 11.862C24.9136 12.6624 24.6611 13.7255 24.6611 14.985C24.6611 16.2487 24.9153 17.2705 25.4781 18.0638C26.0644 18.8903 26.8883 19.2801 27.9396 19.2801C29.0222 19.2801 29.871 18.9448 30.4983 18.1919Z" fill="#2F0A77" stroke="#2F0A77"/>
<path d="M42.4743 0.655797L44.5 0.531596V23.5H39.5V3.92157C39.5 2.16931 40.826 0.76412 42.4733 0.655861C42.4736 0.65584 42.4739 0.655818 42.4743 0.655797Z" fill="#2F0A77" stroke="#2F0A77"/>
<path fill-rule="evenodd" clip-rule="evenodd" d="M54 2.69937C54 3.36393 53.7468 3.96519 53.2405 4.43988C52.7342 4.91456 52.1646 5.16772 51.4684 5.16772C50.8038 5.16772 50.2025 4.91456 49.7278 4.43988C49.2532 3.96519 49 3.36393 49 2.69937C49 2.00317 49.2532 1.43355 49.7278 0.927218C50.2025 0.420889 50.8038 0.167725 51.4684 0.167725C52.1646 0.167725 52.7342 0.420889 53.2405 0.927218C53.7468 1.4019 54 2.00317 54 2.69937Z" fill="#2F0A77"/>
<path d="M53.5 7.5V23.5293H48.5V10.7951C48.5 8.96229 49.8918 7.5 51.5635 7.5H53.5Z" fill="#2F0A77" stroke="#2F0A77"/>
<path d="M70.9744 0.715317L74.0444 0.530931V23.1293H71.479L70.6713 22.1395L70.3901 21.7949L70.0151 22.034C69.3206 22.4768 68.5975 22.8294 67.8124 23.0937C67.0303 23.357 66.2587 23.5 65.4619 23.5C62.8799 23.5 60.858 22.8168 59.3165 21.4914C57.836 20.1905 57.0444 18.2453 57.0444 15.5367C57.0444 12.7945 57.8377 10.785 59.3555 9.42225C60.8922 8.04257 63.0074 7.32626 65.7261 7.32626C66.5012 7.32626 67.2106 7.44212 67.8562 7.64337L68.505 7.84563V7.16602V3.11969C68.505 1.87196 69.5534 0.79506 70.9724 0.715435L70.9744 0.715317ZM68.3084 19.2314L68.538 19.0838V18.8108V11.9537V11.6154L68.224 11.4896C67.5007 11.1996 66.8061 11.0212 66.1885 11.0212C65.1876 11.0212 64.357 11.4805 63.7155 12.2923C63.0598 13.1219 62.7821 14.2357 62.7821 15.5058C62.7821 16.8084 63.0606 17.8651 63.7223 18.666L63.7222 18.6661L63.7297 18.6747C64.4051 19.455 65.3154 19.805 66.4527 19.805C67.0852 19.805 67.7065 19.6184 68.3084 19.2314Z" fill="#2F0A77" stroke="#2F0A77"/>
<path d="M91.6169 10.5991L91.6169 10.5991L91.6188 10.6033C92.1937 11.8578 92.5 13.2726 92.5 14.8546C92.5 15.6121 91.8935 16.1966 91.1786 16.1966H82.8064H82.1249L82.3294 16.8466C82.5891 17.6719 83.1105 18.3464 83.8419 18.8271C84.5913 19.3198 85.5302 19.5233 86.641 19.5233C87.4816 19.5233 88.2897 19.4212 89.0962 19.2172L89.0962 19.2172L89.0989 19.2166C90.2095 18.9292 91.3773 19.5525 91.8344 20.6672L91.8344 20.6672L91.836 20.6713L92.3778 21.9604C92.3778 21.9605 92.3778 21.9606 92.3778 21.9607C92.3779 21.9651 92.3773 21.9731 92.3742 21.983C92.3713 21.9925 92.3674 21.9999 92.3643 22.0044C91.7561 22.3812 90.9543 22.6856 89.8914 23.002C88.6296 23.3437 87.3338 23.5 86.0338 23.5C84.1381 23.5 82.454 23.1855 81.0311 22.5426C79.6131 21.9018 78.5079 20.963 77.7002 19.6923C76.897 18.4289 76.5 16.9424 76.5 15.1454C76.5 13.3742 76.8681 11.8477 77.6158 10.5472C78.3696 9.23602 79.3573 8.26884 80.6477 7.57084L80.6562 7.56624L80.6645 7.56132C81.8822 6.84047 83.3237 6.5 84.9474 6.5C86.5967 6.5 87.9647 6.86982 89.0802 7.61197C90.2182 8.3691 91.0495 9.33065 91.6169 10.5991ZM82.1153 13.5543L82.1388 14.0296H82.6147H86.9605H87.4605V13.5296C87.4605 12.8314 87.2288 12.1858 86.8308 11.6004L86.825 11.5919L86.8189 11.5837C86.3315 10.9265 85.632 10.6059 84.7876 10.6059C84.0433 10.6059 83.4062 10.9468 82.8863 11.5101C82.3586 12.0819 82.0759 12.759 82.1153 13.5543Z" fill="#2F0A77" stroke="#2F0A77"/>
<path d="M99.4545 23.0267C98.224 22.7457 97.2398 22.3471 96.5117 21.8472L96.5156 21.8385L97.4717 19.6716C97.7251 19.113 98.3339 18.8268 98.908 19.0061L98.9114 19.0071C99.2392 19.1069 99.5978 19.2061 99.9869 19.3048L99.9869 19.3049L99.9947 19.3067C100.959 19.5351 101.772 19.6763 102.439 19.6763C102.879 19.6763 103.33 19.6119 103.697 19.3906C104.104 19.1964 104.375 18.8532 104.375 18.3993C104.375 18.1481 104.234 17.9499 104.127 17.8309C104.006 17.6952 103.844 17.5685 103.656 17.4542C103.311 17.2441 102.895 17.0333 102.378 16.8582C100.67 16.259 99.2831 15.5065 98.2132 14.7006C97.214 13.9171 96.7176 12.9273 96.7176 11.6978C96.7176 10.062 97.3236 8.82087 98.5 7.91827C99.6931 7.00291 101.391 6.5 103.651 6.5C104.597 6.5 105.646 6.62397 106.798 6.87687L106.798 6.87688L106.801 6.87746C107.364 6.99773 107.871 7.17855 108.356 7.39363C108.925 7.66263 109.18 8.36445 108.907 8.96565L108.907 8.96562L108.903 8.97331L107.949 11.1675C107.949 11.1674 107.949 11.1673 107.949 11.1672C107.381 10.9312 106.787 10.7636 106.225 10.6054L106.212 10.6015L106.212 10.6014L106.204 10.5994C105.44 10.3971 104.726 10.2914 104.098 10.2914C103.564 10.2914 103.064 10.3562 102.646 10.5628C102.24 10.7332 101.875 11.0614 101.875 11.5683C101.875 11.8339 102.031 12.0285 102.139 12.1378C102.26 12.2606 102.418 12.3744 102.594 12.481C102.949 12.6972 103.399 12.9069 103.974 13.0796C105.651 13.6796 107 14.3987 108.062 15.2296C109.026 16.0073 109.5 16.9959 109.5 18.2698C109.5 19.968 108.968 21.2038 107.928 22.0599L107.921 22.0653L107.915 22.0709C106.83 23.0266 105.248 23.5 103.013 23.5C102.073 23.5 100.868 23.3455 99.4545 23.0267Z" fill="#2F0A77" stroke="#2F0A77"/>
<path d="M2.05636 19.2226L2.05673 19.2218C2.28289 18.7331 2.86309 18.4572 3.44115 18.6156L3.44367 18.6162L4.84272 18.9917C4.84329 18.9919 4.84386 18.9921 4.84443 18.9922C6.01013 19.3142 7.09071 19.4804 8.01484 19.4804C9.04192 19.4804 9.91803 19.2816 10.5954 18.8324C11.2188 18.419 11.6874 17.8795 11.6874 17.1608C11.6874 16.6321 11.3216 16.1859 10.8255 15.8632C10.3793 15.573 9.69935 15.1581 8.75226 14.6497L8.75227 14.6496L8.74818 14.6475L7.61803 14.0542C5.99201 13.15 4.735 12.404 3.81221 11.8159C2.96473 11.2551 2.1729 10.5136 1.47101 9.61659C0.827928 8.69218 0.5 7.72735 0.5 6.61961C0.5 5.46774 0.835201 4.41527 1.53254 3.50382C2.23841 2.58122 3.23027 1.84617 4.53201 1.30929C5.82812 0.774728 7.36374 0.5 9.15028 0.5C10.3681 0.5 11.5957 0.68035 12.9049 0.987561C13.6053 1.16733 14.2794 1.40772 14.8992 1.65255C15.407 1.88635 15.5906 2.4302 15.3759 2.89508C15.3758 2.89534 15.3757 2.89561 15.3756 2.89588L14.1615 5.49051C13.0834 5.15884 12.2302 4.93131 11.6023 4.78383L11.5892 4.78077L11.576 4.77841C10.8423 4.64712 10.0779 4.58235 9.21707 4.58235C8.4076 4.58235 7.73665 4.75653 7.16852 5.13775L7.16131 5.14259L7.15427 5.14768C6.62718 5.52858 6.27922 6.04173 6.27922 6.71373C6.27922 7.28922 6.62698 7.70079 7.04223 8.01996L7.05332 8.02848L7.06487 8.03637C7.46242 8.30798 8.12352 8.66591 8.98712 9.10284L10.2832 9.78969C11.7747 10.5993 13.0281 11.3433 14.046 12.0217C15.0038 12.6821 15.8325 13.4607 16.5338 14.3581C17.1714 15.2157 17.5 16.1769 17.5 17.2235C17.5 18.4284 17.1372 19.4808 16.4047 20.4282C15.6673 21.3507 14.6102 22.118 13.2095 22.6872C11.7755 23.225 10.1026 23.5 8.18182 23.5C6.96058 23.5 5.56333 23.3187 4.018 22.9791C2.71656 22.6732 1.62491 22.3104 0.800467 21.9255C0.800269 21.9253 0.800076 21.9252 0.799888 21.925L2.05636 19.2226Z" fill="#2F0A77" stroke="#2F0A77"/>
<path fill-rule="evenodd" clip-rule="evenodd" d="M41.7476 32.5395H43.1122C43.9244 32.5395 44.3467 32.0854 44.3467 31.2745C44.3467 30.4636 43.9244 30.0095 43.1122 30.0095H41.7476V32.5395ZM43.3071 28.7769C44.8665 28.7769 45.9062 29.7824 45.9062 31.2745C45.9062 32.4098 45.2889 33.2856 44.3142 33.6424L46.3285 37.0482C46.3285 37.0482 46.0361 37.1455 45.4513 37.1455C44.9315 37.1455 44.6066 37.0482 44.6066 37.0482L42.6898 33.8046H41.7476V37.0482C41.7476 37.0482 41.4877 37.1455 41.0004 37.1455C40.4481 37.1455 40.2532 37.0482 40.2532 37.0482V28.7769H43.3071Z" fill="#C5B8DE"/>
<path fill-rule="evenodd" clip-rule="evenodd" d="M52.1114 28.8742C52.1114 28.8742 52.3713 28.7769 52.8586 28.7769C53.3459 28.7769 53.6059 28.8742 53.6059 28.8742V37.0158C53.6059 37.0158 53.3459 37.1131 52.8586 37.1131C52.3063 37.1131 52.1114 37.0158 52.1114 37.0158V33.4802H49.0575V37.0158C49.0575 37.0158 48.7976 37.1131 48.3102 37.1131C47.7904 37.1131 47.563 37.0158 47.563 37.0158V28.8742C47.563 28.8742 47.8229 28.7769 48.3102 28.7769C48.7976 28.7769 49.0575 28.8742 49.0575 28.8742V32.2151H52.1114V28.8742Z" fill="#C5B8DE"/>
<path fill-rule="evenodd" clip-rule="evenodd" d="M57.9595 28.8742C57.9595 28.8742 58.2194 28.7769 58.7067 28.7769C59.194 28.7769 59.4539 28.8742 59.4539 28.8742V37.0158C59.4539 37.0158 59.194 37.1131 58.7067 37.1131C58.1869 37.1131 57.9595 37.0158 57.9595 37.0158V28.8742Z" fill="#C5B8DE"/>
<path fill-rule="evenodd" clip-rule="evenodd" d="M65.9515 37.0158C65.9515 37.0158 65.6916 37.1131 65.2043 37.1131C64.6845 37.1131 64.4571 37.0158 64.4571 37.0158V32.8964C64.4571 32.4098 64.1972 32.053 63.5149 32.053C63.125 32.053 62.7677 32.2152 62.5078 32.4747V36.9834C62.5078 36.9834 62.2479 37.0807 61.7605 37.0807C61.2407 37.0807 61.0133 36.9834 61.0133 36.9834V31.1123C61.0133 31.1123 61.2407 31.015 61.7605 31.015C62.2479 31.015 62.5078 31.1123 62.5078 31.1123V31.4691C62.9301 31.1123 63.4499 30.9177 64.0997 30.9177C65.3018 30.9177 65.919 31.6313 65.919 32.6693V37.0158H65.9515Z" fill="#C5B8DE"/>
<path fill-rule="evenodd" clip-rule="evenodd" d="M69.3304 34.8428C69.3304 35.8159 69.6878 36.0429 70.435 36.0429C70.63 36.0429 70.8574 36.0105 70.8574 36.0105C70.8574 36.0105 70.9548 36.27 70.9548 36.5943C70.9548 36.9187 70.8574 37.1133 70.8574 37.1133C70.565 37.2106 70.2726 37.2106 70.0127 37.2106C68.5182 37.2106 67.8685 36.4322 67.8685 34.9076V32.0856H66.9913C66.9913 32.0856 66.8938 31.891 66.8938 31.5666C66.8938 31.2098 66.9913 31.0152 66.9913 31.0152H67.8685V30.0097C68.2583 29.7826 68.8106 29.6853 69.3304 29.7178V31.0152H70.6949C70.6949 31.0152 70.7924 31.2098 70.7924 31.5342C70.7924 31.8586 70.6949 32.0856 70.6949 32.0856H69.3304V34.8428Z" fill="#C5B8DE"/>
<path fill-rule="evenodd" clip-rule="evenodd" d="M74.366 32.0208C73.7812 32.0208 73.3263 32.41 73.2289 33.4804H75.2756C75.2756 33.3507 75.3081 33.2209 75.3081 33.0912C75.2756 32.5398 75.0807 32.0208 74.366 32.0208ZM73.1964 34.5184C73.2938 35.6861 73.8137 36.0105 74.6259 36.0105C75.4056 36.0105 75.9579 35.7186 75.9579 35.7186C76.2178 35.9456 76.3803 36.3349 76.4127 36.7565C76.4127 36.7565 75.7305 37.2431 74.4309 37.2431C72.5466 37.2431 71.7019 36.1402 71.7019 34.0319C71.7019 31.8262 72.7415 30.8855 74.366 30.8855C75.7955 30.8855 76.7376 31.6315 76.7376 33.2858C76.7376 34.0319 76.6077 34.5184 76.6077 34.5184H73.1964Z" fill="#C5B8DE"/>
<path fill-rule="evenodd" clip-rule="evenodd" d="M79.4344 37.0159C79.4344 37.0159 79.1745 37.1132 78.6872 37.1132C78.1674 37.1132 77.9399 37.0159 77.9399 37.0159V28.5175C77.9399 28.5175 78.1674 28.4202 78.6872 28.4202C79.1745 28.4202 79.4344 28.5175 79.4344 28.5175V37.0159Z" fill="#C5B8DE"/>
<path fill-rule="evenodd" clip-rule="evenodd" d="M82.4882 37.0158C82.4882 37.0158 82.2283 37.1131 81.741 37.1131C81.2212 37.1131 80.9938 37.0158 80.9938 37.0158V31.1123C80.9938 31.1123 81.2212 31.015 81.741 31.015C82.2283 31.015 82.4882 31.1123 82.4882 31.1123V37.0158ZM82.4882 29.977C82.4882 29.977 82.2283 30.0743 81.741 30.0743C81.2212 30.0743 80.9938 29.977 80.9938 29.977V28.6471C80.9938 28.6471 81.2212 28.5498 81.741 28.5498C82.2283 28.5498 82.4882 28.6471 82.4882 28.6471V29.977Z" fill="#C5B8DE"/>
<path fill-rule="evenodd" clip-rule="evenodd" d="M86.1272 31.9232C85.5424 31.9232 85.1525 32.2476 85.1525 33.0585C85.1525 33.837 85.5424 34.1613 86.1272 34.1613C86.712 34.1613 87.1018 33.837 87.1018 33.0585C87.1018 32.2476 86.712 31.9232 86.1272 31.9232ZM85.2825 37.2753C85.12 37.4374 84.8926 37.7294 84.8926 38.1186C84.8926 38.5727 85.25 38.962 86.0947 38.962C87.1993 38.962 87.7191 38.6052 87.7191 38.1186C87.7516 37.405 86.2896 37.5672 85.2825 37.2753ZM89.1486 30.8852C89.2786 31.1772 89.2786 31.6961 89.1486 31.9881L88.2389 31.8583C88.4014 32.1827 88.4989 32.5395 88.4989 32.9936C88.4989 34.3235 87.7191 35.1344 86.1272 35.1344C85.9647 35.1344 85.8348 35.1344 85.7048 35.1344C85.6074 35.2966 85.5424 35.4588 85.5749 35.6534C85.7698 36.5941 89.1161 35.5237 89.1161 37.9564C89.1161 39.1566 87.9141 39.9999 86.0622 39.9999C84.2753 39.9999 83.4956 39.3512 83.4956 38.4105C83.4956 37.5672 84.2104 37.0482 84.5352 36.8536C84.3728 36.6914 84.2753 36.4643 84.2753 36.1724C84.2753 35.6534 84.5677 35.1993 84.8601 34.8749C84.1454 34.5506 83.788 33.8694 83.788 32.9936C83.788 31.6637 84.6002 30.8528 86.1597 30.8528C86.6795 30.8528 87.1343 30.9501 87.4917 31.1123L89.1486 30.8852Z" fill="#C5B8DE"/>
<path fill-rule="evenodd" clip-rule="evenodd" d="M92.5597 32.0208C91.9749 32.0208 91.52 32.41 91.4226 33.4804H93.4694C93.4694 33.3507 93.5018 33.2209 93.5018 33.0912C93.5018 32.5398 93.2744 32.0208 92.5597 32.0208ZM91.4226 34.5184C91.52 35.6861 92.0399 36.0105 92.8521 36.0105C93.6318 36.0105 94.1841 35.7186 94.1841 35.7186C94.444 35.9456 94.6064 36.3349 94.6389 36.7565C94.6389 36.7565 93.9567 37.2431 92.6571 37.2431C90.7728 37.2431 89.9281 36.1402 89.9281 34.0319C89.9281 31.8262 90.9677 30.8855 92.5922 30.8855C94.0217 30.8855 94.9638 31.6315 94.9638 33.2858C94.9638 34.0319 94.8339 34.5184 94.8339 34.5184H91.4226Z" fill="#C5B8DE"/>
<path fill-rule="evenodd" clip-rule="evenodd" d="M101.039 37.0158C101.039 37.0158 100.779 37.1131 100.292 37.1131C99.772 37.1131 99.5446 37.0158 99.5446 37.0158V32.8964C99.5446 32.4098 99.2847 32.053 98.6024 32.053C98.2126 32.053 97.8552 32.2152 97.5953 32.4747V36.9834C97.5953 36.9834 97.3354 37.0807 96.8481 37.0807C96.3283 37.0807 96.1008 36.9834 96.1008 36.9834V31.1123C96.1008 31.1123 96.3283 31.015 96.8481 31.015C97.3354 31.015 97.5953 31.1123 97.5953 31.1123V31.4691C98.0177 31.1123 98.5375 30.9177 99.1872 30.9177C100.389 30.9177 101.007 31.6313 101.007 32.6693V37.0158H101.039Z" fill="#C5B8DE"/>
<path fill-rule="evenodd" clip-rule="evenodd" d="M104.418 34.8428C104.418 35.8159 104.775 36.0429 105.523 36.0429C105.717 36.0429 105.945 36.0105 105.945 36.0105C105.945 36.0105 106.042 36.27 106.042 36.5943C106.042 36.9187 105.945 37.1133 105.945 37.1133C105.653 37.2106 105.36 37.2106 105.1 37.2106C103.606 37.2106 102.956 36.4322 102.956 34.9076V32.0856H102.079C102.079 32.0856 101.981 31.891 101.981 31.5666C101.981 31.2098 102.079 31.0152 102.079 31.0152H102.956V30.0097C103.346 29.7826 103.898 29.6853 104.418 29.7178V31.0152H105.782C105.782 31.0152 105.88 31.2098 105.88 31.5342C105.88 31.8586 105.782 32.0856 105.782 32.0856H104.418V34.8428Z" fill="#C5B8DE"/>
<path fill-rule="evenodd" clip-rule="evenodd" d="M109.421 32.0208C108.836 32.0208 108.382 32.41 108.284 33.4804H110.331C110.331 33.3507 110.363 33.2209 110.363 33.0912C110.363 32.5398 110.168 32.0208 109.421 32.0208ZM108.284 34.5184C108.382 35.6861 108.901 36.0105 109.714 36.0105C110.493 36.0105 111.046 35.7186 111.046 35.7186C111.306 35.9456 111.468 36.3349 111.501 36.7565C111.501 36.7565 110.818 37.2431 109.519 37.2431C107.634 37.2431 106.79 36.1402 106.79 34.0319C106.79 31.8262 107.829 30.8855 109.454 30.8855C110.883 30.8855 111.825 31.6315 111.825 33.2858C111.825 34.0319 111.695 34.5184 111.695 34.5184H108.284Z" fill="#C5B8DE"/>
</svg>
