<svg width="217" height="176" viewBox="0 0 217 176" fill="none" xmlns="http://www.w3.org/2000/svg">
<path d="M5.93359 5.92308C9.88932 1.97436 14.6927 0 20.3438 0C25.9948 0 30.7982 1.97436 34.7539 5.92308C38.7096 9.8718 40.6875 14.6667 40.6875 20.3077C40.6875 25.9487 38.7096 30.7436 34.7539 34.6923C30.7982 38.641 25.9948 40.6154 20.3438 40.6154C14.6927 40.6154 9.88932 38.641 5.93359 34.6923C1.97786 30.7436 0 25.9487 0 20.3077C0 14.6667 1.97786 9.8718 5.93359 5.92308ZM5.93359 73.6154C9.88932 69.6667 14.6927 67.6923 20.3438 67.6923C25.9948 67.6923 30.7982 69.6667 34.7539 73.6154C38.7096 77.5641 40.6875 82.359 40.6875 88C40.6875 93.641 38.7096 98.4359 34.7539 102.385C30.7982 106.333 25.9948 108.308 20.3438 108.308C14.6927 108.308 9.88932 106.333 5.93359 102.385C1.97786 98.4359 0 93.641 0 88C0 82.359 1.97786 77.5641 5.93359 73.6154ZM5.93359 141.308C9.88932 137.359 14.6927 135.385 20.3438 135.385C25.9948 135.385 30.7982 137.359 34.7539 141.308C38.7096 145.256 40.6875 150.051 40.6875 155.692C40.6875 161.333 38.7096 166.128 34.7539 170.077C30.7982 174.026 25.9948 176 20.3438 176C14.6927 176 9.88932 174.026 5.93359 170.077C1.97786 166.128 0 161.333 0 155.692C0 150.051 1.97786 145.256 5.93359 141.308ZM210.219 142.154C212.197 142.154 213.751 142.859 214.881 144.269C216.294 145.397 217 146.949 217 148.923V162.462C217 164.436 216.294 166.128 214.881 167.538C213.751 168.667 212.197 169.231 210.219 169.231H74.5938C72.6159 169.231 70.9206 168.667 69.5078 167.538C68.3776 166.128 67.8125 164.436 67.8125 162.462V148.923C67.8125 146.949 68.3776 145.397 69.5078 144.269C70.9206 142.859 72.6159 142.154 74.5938 142.154H210.219ZM210.219 6.76923C212.197 6.76923 213.751 7.47436 214.881 8.88462C216.294 10.0128 217 11.5641 217 13.5385V27.0769C217 29.0513 216.294 30.7436 214.881 32.1538C213.751 33.2821 212.197 33.8462 210.219 33.8462H74.5938C72.6159 33.8462 70.9206 33.2821 69.5078 32.1538C68.3776 30.7436 67.8125 29.0513 67.8125 27.0769V13.5385C67.8125 11.5641 68.3776 10.0128 69.5078 8.88462C70.9206 7.47436 72.6159 6.76923 74.5938 6.76923H210.219ZM210.219 74.4615C212.197 74.4615 213.751 75.1667 214.881 76.5769C216.294 77.7051 217 79.2564 217 81.2308V94.7692C217 96.7436 216.294 98.4359 214.881 99.8462C213.751 100.974 212.197 101.538 210.219 101.538H74.5938C72.6159 101.538 70.9206 100.974 69.5078 99.8462C68.3776 98.4359 67.8125 96.7436 67.8125 94.7692V81.2308C67.8125 79.2564 68.3776 77.7051 69.5078 76.5769C70.9206 75.1667 72.6159 74.4615 74.5938 74.4615H210.219Z" fill="#2F0877"/>
</svg>
