<svg width="191" height="191" viewBox="0 0 191 191" fill="none" xmlns="http://www.w3.org/2000/svg">
<path d="M43.0039 140.934L2.12891 100.059C0.709635 98.9232 0 97.362 0 95.375C0 93.388 0.709635 91.8268 2.12891 90.6914L43.0039 49.8164C44.9909 47.5456 47.4036 46.9779 50.2422 48.1133C53.0807 49.2487 54.5 51.3776 54.5 54.5V136.25C54.5 139.372 53.0807 141.501 50.2422 142.637C47.4036 143.772 44.9909 143.204 43.0039 140.934ZM183.938 163.5C185.924 163.5 187.486 164.21 188.621 165.629C190.04 166.764 190.75 168.326 190.75 170.312V183.938C190.75 185.924 190.04 187.486 188.621 188.621C187.486 190.04 185.924 190.75 183.938 190.75H6.8125C4.82552 190.75 3.1224 190.04 1.70312 188.621C0.567708 187.486 0 185.924 0 183.938V170.312C0 168.326 0.567708 166.764 1.70312 165.629C3.1224 164.21 4.82552 163.5 6.8125 163.5H183.938ZM185.215 109C186.634 109 187.911 109.568 189.047 110.703C190.182 111.839 190.75 113.116 190.75 114.535V130.715C190.75 132.134 190.182 133.411 189.047 134.547C187.911 135.682 186.634 136.25 185.215 136.25H87.2852C85.8659 136.25 84.5885 135.682 83.4531 134.547C82.3177 133.411 81.75 132.134 81.75 130.715V114.535C81.75 113.116 82.3177 111.839 83.4531 110.703C84.5885 109.568 85.8659 109 87.2852 109H185.215ZM185.215 54.5C186.634 54.5 187.911 55.0677 189.047 56.2031C190.182 57.3385 190.75 58.6159 190.75 60.0352V76.2148C190.75 77.6341 190.182 78.9115 189.047 80.0469C187.911 81.1823 186.634 81.75 185.215 81.75H87.2852C85.8659 81.75 84.5885 81.1823 83.4531 80.0469C82.3177 78.9115 81.75 77.6341 81.75 76.2148V60.0352C81.75 58.6159 82.3177 57.3385 83.4531 56.2031C84.5885 55.0677 85.8659 54.5 87.2852 54.5H185.215ZM183.938 0C185.924 0 187.486 0.709635 188.621 2.12891C190.04 3.26432 190.75 4.82552 190.75 6.8125V20.4375C190.75 22.4245 190.04 24.1276 188.621 25.5469C187.486 26.6823 185.924 27.25 183.938 27.25H6.8125C4.82552 27.25 3.1224 26.6823 1.70312 25.5469C0.567708 24.1276 0 22.4245 0 20.4375V6.8125C0 4.82552 0.567708 3.26432 1.70312 2.12891C3.1224 0.709635 4.82552 0 6.8125 0H183.938Z" fill="#2F0877"/>
</svg>
