<svg width="216" height="215" viewBox="0 0 216 215" fill="none" xmlns="http://www.w3.org/2000/svg">
<path d="M210.084 0C211.503 0 212.639 0.567708 213.49 1.70312C214.626 2.55469 215.193 3.6901 215.193 5.10938V90.2656C215.193 91.6849 214.626 92.9622 213.49 94.0977C212.639 94.9492 211.503 95.375 210.084 95.375H124.928C123.508 95.375 122.231 94.9492 121.096 94.0977C120.244 92.9622 119.818 91.6849 119.818 90.2656V70.2539C119.818 68.8346 120.244 67.6992 121.096 66.8477C122.231 65.7122 123.508 65.1445 124.928 65.1445C124.928 65.1445 125.07 65.1445 125.354 65.1445L168.357 67.2734C162.113 58.1901 152.887 50.3841 140.682 43.8555C128.76 37.3268 117.264 34.0625 106.193 34.0625C85.472 34.0625 67.7311 41.4427 52.9707 56.2031C38.4941 70.6797 31.2559 88.2786 31.2559 109C31.2559 129.721 38.4941 147.462 52.9707 162.223C67.7311 176.699 85.472 183.938 106.193 183.938C114.141 183.938 122.941 182.092 132.592 178.402C142.243 174.712 149.907 170.312 155.584 165.203C156.719 164.352 157.855 163.926 158.99 163.926C160.41 163.926 161.687 164.493 162.822 165.629L177.299 180.105C178.15 180.957 178.576 182.092 178.576 183.512C178.576 185.215 178.008 186.492 176.873 187.344C172.899 191.034 167.932 194.582 161.971 197.988C156.294 201.395 150.191 204.233 143.662 206.504C137.417 209.059 131.031 211.046 124.502 212.465C117.973 213.884 111.87 214.594 106.193 214.594C87.1751 214.594 69.4342 209.91 52.9707 200.543C36.791 191.176 24.0176 178.402 14.6504 162.223C5.2832 146.043 0.599609 128.302 0.599609 109C0.599609 80.0469 10.9603 55.2096 31.6816 34.4883C52.403 13.7669 77.2402 3.40625 106.193 3.40625C114.993 3.40625 124.502 5.10938 134.721 8.51562C145.223 11.638 155.016 16.1797 164.1 22.1406C173.467 27.8177 180.989 33.9206 186.666 40.4492L184.963 5.53516C184.963 5.2513 184.963 5.10938 184.963 5.10938C184.963 3.6901 185.389 2.55469 186.24 1.70312C187.376 0.567708 188.653 0 190.072 0H210.084Z" fill="#2F0877"/>
</svg>
