<svg width="191" height="191" viewBox="0 0 191 191" fill="none" xmlns="http://www.w3.org/2000/svg">
<path d="M6.82143 81.8571C4.83185 81.8571 3.12649 81.2887 1.70536 80.1518C0.568452 78.7307 0 77.0253 0 75.0357V61.3929C0 59.4033 0.568452 57.84 1.70536 56.7031C3.12649 55.282 4.83185 54.5714 6.82143 54.5714H184.179C186.168 54.5714 187.731 55.282 188.868 56.7031C190.289 57.84 191 59.4033 191 61.3929V75.0357C191 77.0253 190.289 78.7307 188.868 80.1518C187.731 81.2887 186.168 81.8571 184.179 81.8571H6.82143ZM184.179 163.714C186.168 163.714 187.731 164.425 188.868 165.846C190.289 166.983 191 168.546 191 170.536V184.179C191 186.168 190.289 187.731 188.868 188.868C187.731 190.289 186.168 191 184.179 191H6.82143C4.83185 191 3.12649 190.289 1.70536 188.868C0.568452 187.731 0 186.168 0 184.179V170.536C0 168.546 0.568452 166.983 1.70536 165.846C3.12649 164.425 4.83185 163.714 6.82143 163.714H184.179ZM185.458 0C186.879 0 188.158 0.568452 189.295 1.70536C190.432 2.84226 191 4.12128 191 5.54241V21.7433C191 23.1644 190.432 24.4435 189.295 25.5804C188.158 26.7173 186.879 27.2857 185.458 27.2857H73.7567C72.3356 27.2857 71.0565 26.7173 69.9196 25.5804C68.7827 24.4435 68.2143 23.1644 68.2143 21.7433V5.54241C68.2143 4.12128 68.7827 2.84226 69.9196 1.70536C71.0565 0.568452 72.3356 0 73.7567 0H185.458ZM185.458 109.143C186.879 109.143 188.158 109.711 189.295 110.848C190.432 111.985 191 113.264 191 114.685V130.886C191 132.307 190.432 133.586 189.295 134.723C188.158 135.86 186.879 136.429 185.458 136.429H73.7567C72.3356 136.429 71.0565 135.86 69.9196 134.723C68.7827 133.586 68.2143 132.307 68.2143 130.886V114.685C68.2143 113.264 68.7827 111.985 69.9196 110.848C71.0565 109.711 72.3356 109.143 73.7567 109.143H185.458Z" fill="#2F0877"/>
</svg>
