<svg width="218" height="191" viewBox="0 0 218 191" fill="none" xmlns="http://www.w3.org/2000/svg">
<path d="M211.188 163.5C213.174 163.5 214.736 164.068 215.871 165.203C217.29 166.622 218 168.326 218 170.312V183.938C218 185.924 217.29 187.486 215.871 188.621C214.736 190.04 213.174 190.75 211.188 190.75H170.312C168.326 190.75 166.622 190.04 165.203 188.621C164.068 187.486 163.5 185.924 163.5 183.938V170.312C163.5 168.326 164.068 166.622 165.203 165.203C166.622 164.068 168.326 163.5 170.312 163.5H177.125V122.625H170.312C168.326 122.625 166.622 122.057 165.203 120.922C164.068 119.503 163.5 117.799 163.5 115.812C163.5 114.677 163.784 113.684 164.352 112.832L171.164 99.207C172.299 96.6523 174.286 95.375 177.125 95.375H197.562C199.549 95.375 201.111 96.0846 202.246 97.5039C203.665 98.6393 204.375 100.201 204.375 102.188V163.5H211.188ZM143.062 0C145.049 0 146.611 0.709635 147.746 2.12891C149.165 3.26432 149.875 4.82552 149.875 6.8125V27.25C149.875 29.237 149.165 30.9401 147.746 32.3594C146.611 33.4948 145.049 34.0625 143.062 34.0625H129.012L95.8008 81.75L129.012 129.438H143.062C145.049 129.438 146.611 130.147 147.746 131.566C149.165 132.702 149.875 134.263 149.875 136.25V156.688C149.875 158.674 149.165 160.378 147.746 161.797C146.611 162.932 145.049 163.5 143.062 163.5H114.535C112.264 163.5 110.419 162.507 109 160.52L74.9375 111.555L40.875 160.52C39.4557 162.507 37.6107 163.5 35.3398 163.5H6.8125C4.82552 163.5 3.1224 162.932 1.70312 161.797C0.567708 160.378 0 158.674 0 156.688V136.25C0 134.263 0.567708 132.702 1.70312 131.566C3.1224 130.147 4.82552 129.438 6.8125 129.438H20.8633L54.0742 81.75L20.8633 34.0625H6.8125C4.82552 34.0625 3.1224 33.4948 1.70312 32.3594C0.567708 30.9401 0 29.237 0 27.25V6.8125C0 4.82552 0.567708 3.26432 1.70312 2.12891C3.1224 0.709635 4.82552 0 6.8125 0H35.3398C37.6107 0 39.4557 0.99349 40.875 2.98047L74.9375 51.9453L109 2.98047C110.419 0.99349 112.264 0 114.535 0H143.062Z" fill="#2F0877"/>
</svg>
