<svg width="218" height="191" viewBox="0 0 218 191" fill="none" xmlns="http://www.w3.org/2000/svg">
<path d="M211.188 68.125C213.174 68.125 214.736 68.8346 215.871 70.2539C217.29 71.3893 218 72.9505 218 74.9375V88.5625C218 90.5495 217.29 92.2526 215.871 93.6719C214.736 94.8073 213.174 95.375 211.188 95.375H170.312C168.326 95.375 166.622 94.8073 165.203 93.6719C164.068 92.2526 163.5 90.5495 163.5 88.5625V74.9375C163.5 72.9505 164.068 71.3893 165.203 70.2539C166.622 68.8346 168.326 68.125 170.312 68.125H177.125V27.25H170.312C168.326 27.25 166.622 26.6823 165.203 25.5469C164.068 24.1276 163.5 22.4245 163.5 20.4375C163.5 19.3021 163.784 18.3086 164.352 17.457L171.164 3.83203C172.299 1.27734 174.286 0 177.125 0H197.562C199.549 0 201.111 0.709635 202.246 2.12891C203.665 3.26432 204.375 4.82552 204.375 6.8125V68.125H211.188ZM143.062 27.25C145.049 27.25 146.611 27.9596 147.746 29.3789C149.165 30.5143 149.875 32.0755 149.875 34.0625V54.5C149.875 56.487 149.165 58.1901 147.746 59.6094C146.611 60.7448 145.049 61.3125 143.062 61.3125H129.012L95.8008 109L129.012 156.688H143.062C145.049 156.688 146.611 157.397 147.746 158.816C149.165 159.952 149.875 161.513 149.875 163.5V183.938C149.875 185.924 149.165 187.628 147.746 189.047C146.611 190.182 145.049 190.75 143.062 190.75H114.535C112.264 190.75 110.419 189.757 109 187.77L74.9375 138.805L40.875 187.77C39.4557 189.757 37.6107 190.75 35.3398 190.75H6.8125C4.82552 190.75 3.1224 190.182 1.70312 189.047C0.567708 187.628 0 185.924 0 183.938V163.5C0 161.513 0.567708 159.952 1.70312 158.816C3.1224 157.397 4.82552 156.688 6.8125 156.688H20.8633L54.0742 109L20.8633 61.3125H6.8125C4.82552 61.3125 3.1224 60.7448 1.70312 59.6094C0.567708 58.1901 0 56.487 0 54.5V34.0625C0 32.0755 0.567708 30.5143 1.70312 29.3789C3.1224 27.9596 4.82552 27.25 6.8125 27.25H35.3398C37.6107 27.25 39.4557 28.2435 40.875 30.2305L74.9375 79.1953L109 30.2305C110.419 28.2435 112.264 27.25 114.535 27.25H143.062Z" fill="#2F0877"/>
</svg>
