<svg width="191" height="218" viewBox="0 0 191 218" fill="none" xmlns="http://www.w3.org/2000/svg">
<path d="M13.625 27.25C11.638 27.25 9.9349 26.6823 8.51562 25.5469C7.38021 24.1276 6.8125 22.4245 6.8125 20.4375V6.8125C6.8125 4.82552 7.38021 3.26432 8.51562 2.12891C9.9349 0.709635 11.638 0 13.625 0H74.9375C76.9245 0 78.4857 0.709635 79.6211 2.12891C81.0404 3.26432 81.75 4.82552 81.75 6.8125V20.4375C81.75 22.4245 81.0404 24.1276 79.6211 25.5469C78.4857 26.6823 76.9245 27.25 74.9375 27.25H61.3125V95.375C61.3125 104.742 64.5768 112.832 71.1055 119.645C77.918 126.173 86.0078 129.438 95.375 129.438C104.742 129.438 112.69 126.173 119.219 119.645C126.031 112.832 129.438 104.742 129.438 95.375V27.25H115.812C113.826 27.25 112.122 26.6823 110.703 25.5469C109.568 24.1276 109 22.4245 109 20.4375V6.8125C109 4.82552 109.568 3.26432 110.703 2.12891C112.122 0.709635 113.826 0 115.812 0H177.125C179.112 0 180.673 0.709635 181.809 2.12891C183.228 3.26432 183.938 4.82552 183.938 6.8125V20.4375C183.938 22.4245 183.228 24.1276 181.809 25.5469C180.673 26.6823 179.112 27.25 177.125 27.25H163.5V95.375C163.5 114.109 156.829 130.147 143.488 143.488C130.147 156.829 114.109 163.5 95.375 163.5C76.6406 163.5 60.6029 156.829 47.2617 143.488C33.9206 130.147 27.25 114.109 27.25 95.375V27.25H13.625ZM183.938 190.75C185.924 190.75 187.486 191.318 188.621 192.453C190.04 193.872 190.75 195.576 190.75 197.562V211.188C190.75 213.174 190.04 214.736 188.621 215.871C187.486 217.29 185.924 218 183.938 218H6.8125C4.82552 218 3.1224 217.29 1.70312 215.871C0.567708 214.736 0 213.174 0 211.188V197.562C0 195.576 0.567708 193.872 1.70312 192.453C3.1224 191.318 4.82552 190.75 6.8125 190.75H183.938Z" fill="#2F0877"/>
</svg>
