<svg width="215" height="215" viewBox="0 0 215 215" fill="none" xmlns="http://www.w3.org/2000/svg">
<path d="M90.2656 95.375H5.10938C3.6901 95.375 2.41276 94.9492 1.27734 94.0977C0.425781 92.9622 0 91.6849 0 90.2656V5.10938C0 1.70312 1.70312 0 5.10938 0H25.5469C28.9531 0 30.6562 1.70312 30.6562 5.10938V38.3203C40.5911 27.25 52.3711 18.7344 65.9961 12.7734C79.9049 6.52865 94.5234 3.40625 109.852 3.40625C139.089 3.6901 163.926 14.1927 184.363 34.9141C204.801 55.3516 214.878 80.1888 214.594 109.426C214.594 138.379 204.233 163.216 183.512 183.938C163.074 204.375 138.237 214.594 109 214.594C82.0339 214.594 58.474 205.51 38.3203 187.344C35.4818 184.789 35.3398 182.234 37.8945 179.68L52.3711 165.203C54.6419 162.932 57.0547 162.932 59.6094 165.203C73.8021 177.693 90.2656 183.938 109 183.938C129.721 183.938 147.32 176.699 161.797 162.223C176.557 147.462 183.938 129.721 183.938 109C183.938 88.2786 176.557 70.6797 161.797 56.2031C147.32 41.4427 129.721 34.0625 109 34.0625C96.7943 34.0625 85.4401 36.901 74.9375 42.5781C64.4349 47.9714 55.6354 55.3516 48.5391 64.7188H90.2656C91.6849 64.7188 92.8203 65.2865 93.6719 66.4219C94.8073 67.2734 95.375 68.4089 95.375 69.8281V90.2656C95.375 91.6849 94.8073 92.9622 93.6719 94.0977C92.8203 94.9492 91.6849 95.375 90.2656 95.375Z" fill="#2F0877"/>
</svg>
