<svg width="190" height="190" viewBox="0 0 190 190" fill="none" xmlns="http://www.w3.org/2000/svg">
<path d="M112.812 150.664C115.039 152.643 115.039 154.746 112.812 156.973L96.1133 173.672C85.2279 184.557 71.9922 190 56.4062 190C40.8203 190 27.4609 184.434 16.3281 173.301C5.44271 162.415 0 149.18 0 133.594C0 118.008 5.44271 104.772 16.3281 93.8867L33.0273 77.1875C35.2539 74.9609 37.3568 74.9609 39.3359 77.1875L54.1797 92.0312C56.1589 94.0104 56.1589 95.9896 54.1797 97.9687L37.4805 114.668C32.2852 119.863 29.6875 126.172 29.6875 133.594C29.6875 141.016 32.2852 147.324 37.4805 152.52C42.6758 157.715 48.9844 160.312 56.4062 160.312C63.8281 160.312 70.1367 157.715 75.332 152.52L92.0312 135.82C94.0104 133.841 95.9896 133.841 97.9687 135.82L112.812 150.664ZM92.0312 54.1797L77.1875 39.3359C74.9609 37.3568 74.9609 35.2539 77.1875 33.0273L93.8867 16.3281C104.772 5.44271 118.008 0 133.594 0C149.18 0 162.415 5.56641 173.301 16.6992C184.434 27.5846 190 40.8203 190 56.4062C190 71.9922 184.557 85.2279 173.672 96.1133L156.973 112.812C154.746 115.039 152.643 115.039 150.664 112.812L135.82 97.9687C133.841 95.9896 133.841 94.0104 135.82 92.0312L152.52 75.332C157.715 70.1367 160.312 63.8281 160.312 56.4062C160.312 48.9844 157.715 42.6758 152.52 37.4805C147.324 32.2852 141.016 29.6875 133.594 29.6875C126.172 29.6875 119.863 32.2852 114.668 37.4805L97.9687 54.1797C95.9896 56.1589 94.0104 56.1589 92.0312 54.1797ZM178.867 187.402C177.135 189.134 175.033 190 172.559 190C170.085 190 167.982 189.134 166.25 187.402L2.59766 23.75C0.865885 22.0182 0 19.9154 0 17.4414C0 14.9674 0.865885 12.8646 2.59766 11.1328L11.1328 2.59766C12.8646 0.865885 14.9674 0 17.4414 0C19.9154 0 22.0182 0.865885 23.75 2.59766L187.402 166.25C189.134 167.982 190 170.085 190 172.559C190 175.033 189.134 177.135 187.402 178.867L178.867 187.402Z" fill="#2F0877"/>
</svg>
