<svg width="217" height="190" viewBox="0 0 217 190" fill="none" xmlns="http://www.w3.org/2000/svg">
<path d="M26.4262 156.496C30.3789 157.626 33.3434 159.606 35.3197 162.433C37.296 164.978 38.2842 167.946 38.2842 171.339C38.2842 176.429 36.5902 180.811 33.2022 184.487C29.8142 188.162 24.7322 190 17.9563 190C12.0273 190 6.80419 188.728 2.28689 186.183C-0.254098 184.204 -0.677596 181.942 1.01639 179.397L3.55738 175.156C4.96903 172.612 7.22769 172.188 10.3333 173.884C12.3097 174.732 14.4271 175.156 16.6858 175.156C20.6384 175.156 22.6148 174.025 22.6148 171.763C22.6148 169.219 20.3561 167.946 15.8388 167.946H14.1448C11.8862 167.946 10.051 166.815 8.63934 164.554L8.21585 163.705C7.36885 161.726 7.79235 159.606 9.48634 157.344L12.0273 154.375C13.439 152.679 14.9918 150.982 16.6858 149.286H6.94536C4.6867 149.286 3.55738 148.155 3.55738 145.893V139.107C3.55738 136.845 4.6867 135.714 6.94536 135.714H31.0847C34.1903 135.714 35.7432 137.269 35.7432 140.379V142.076C35.7432 142.076 35.7432 142.217 35.7432 142.5C35.7432 144.479 35.0373 146.317 33.6257 148.013L26.4262 156.496ZM210.224 81.4286C212.2 81.4286 213.753 82.1354 214.883 83.5491C216.294 84.6801 217 86.2351 217 88.2143V101.786C217 103.765 216.294 105.461 214.883 106.875C213.753 108.006 212.2 108.571 210.224 108.571H74.7049C72.7286 108.571 71.0346 108.006 69.623 106.875C68.4936 105.461 67.929 103.765 67.929 101.786V88.2143C67.929 86.2351 68.4936 84.6801 69.623 83.5491C71.0346 82.1354 72.7286 81.4286 74.7049 81.4286H210.224ZM210.224 13.5714C212.2 13.5714 213.753 14.2783 214.883 15.692C216.294 16.8229 217 18.378 217 20.3571V33.9286C217 35.9077 216.294 37.6042 214.883 39.0179C213.753 40.1488 212.2 40.7143 210.224 40.7143H74.7049C72.7286 40.7143 71.0346 40.1488 69.623 39.0179C68.4936 37.6042 67.929 35.9077 67.929 33.9286V20.3571C67.929 18.378 68.4936 16.8229 69.623 15.692C71.0346 14.2783 72.7286 13.5714 74.7049 13.5714H210.224ZM210.224 149.286C212.2 149.286 213.753 149.993 214.883 151.406C216.294 152.537 217 154.092 217 156.071V169.643C217 171.622 216.294 173.318 214.883 174.732C213.753 175.863 212.2 176.429 210.224 176.429H74.7049C72.7286 176.429 71.0346 175.863 69.623 174.732C68.4936 173.318 67.929 171.622 67.929 169.643V156.071C67.929 154.092 68.4936 152.537 69.623 151.406C71.0346 149.993 72.7286 149.286 74.7049 149.286H210.224ZM6.94536 54.2857C4.6867 54.2857 3.55738 53.1548 3.55738 50.8929V44.1071C3.55738 41.8452 4.6867 40.7143 6.94536 40.7143H13.7213V13.5714H10.3333C8.07468 13.5714 6.94536 12.4405 6.94536 10.1786C6.94536 9.6131 7.08652 9.04762 7.36885 8.48214L10.7568 1.69643C11.3215 0.565476 12.3097 0 13.7213 0H23.8852C26.1439 0 27.2732 1.13095 27.2732 3.39286V40.7143H34.0492C36.3078 40.7143 37.4372 41.8452 37.4372 44.1071V50.8929C37.4372 53.1548 36.3078 54.2857 34.0492 54.2857H6.94536ZM5.25137 122.143C1.86339 122.143 0.169399 120.588 0.169399 117.478V115.781C0.169399 110.975 1.29872 106.875 3.55738 103.482C5.81603 99.8066 8.21585 97.1205 10.7568 95.4241C13.5801 93.7277 16.1211 92.0313 18.3798 90.3348C20.6384 88.6384 21.7678 87.2247 21.7678 86.0938C21.7678 83.8319 20.4973 82.7009 17.9563 82.7009C16.2623 82.7009 14.8506 83.2664 13.7213 84.3973C11.1803 86.6592 8.92168 86.942 6.94536 85.2455L3.55738 82.2768C0.734062 80.2976 0.310565 78.1771 2.28689 75.9152C6.23953 70.5432 11.8862 67.8571 19.2268 67.8571C22.3324 67.8571 25.1557 68.4226 27.6967 69.5536C30.52 70.4018 32.9199 72.2396 34.8962 75.067C37.1548 77.6116 38.2842 80.8631 38.2842 84.8214C38.2842 87.6488 37.5783 90.3348 36.1667 92.8795C34.755 95.1414 33.061 97.1205 31.0847 98.817C29.3907 100.231 27.5556 101.644 25.5792 103.058C23.6029 104.189 21.7678 105.179 20.0738 106.027C18.6621 106.875 17.8151 107.723 17.5328 108.571H34.0492C36.3078 108.571 37.4372 109.702 37.4372 111.964V118.75C37.4372 121.012 36.3078 122.143 34.0492 122.143H5.25137Z" fill="#2F0877"/>
</svg>
