<svg width="24" height="24" viewBox="0 0 24 24" fill="none" xmlns="http://www.w3.org/2000/svg">
<path d="M23.8963 11.5928C23.8169 11.4457 23.6962 11.325 23.5491 11.2456L20.1745 9.42844L23.5491 7.61126C23.8267 7.46184 23.9999 7.17214 24 6.85693C23.9999 6.54172 23.8267 6.25203 23.5491 6.10261L12.406 0.102421C12.1523 -0.0341402 11.847 -0.0341402 11.5934 0.102421L0.450189 6.10261C0.0335755 6.32747 -0.121819 6.84744 0.103036 7.26405C0.182441 7.41116 0.303131 7.53185 0.450189 7.61121L3.82488 9.42838L0.450189 11.2456C0.0335755 11.4705 -0.121819 11.9904 0.103036 12.4071C0.182441 12.5542 0.303131 12.6749 0.450189 12.7542L3.82483 14.5714L0.450189 16.3886C0.0335755 16.6135 -0.121819 17.1335 0.103036 17.5501C0.182441 17.6972 0.303131 17.8179 0.450189 17.8972L11.5933 23.8974C11.847 24.034 12.1523 24.034 12.4059 23.8974L23.5491 17.8972C23.9657 17.6724 24.1211 17.1524 23.8962 16.7358C23.8168 16.5887 23.6961 16.468 23.5491 16.3886L20.1744 14.5714L23.5491 12.7543C23.9657 12.5294 24.1211 12.0094 23.8963 11.5928ZM2.66424 6.85693L11.9996 1.8305L21.335 6.85693L11.9996 11.8834L2.66424 6.85693ZM21.335 17.1429L11.9996 22.1694L2.66424 17.1429L5.63176 15.5452L11.5934 18.7545C11.847 18.891 12.1523 18.891 12.406 18.7545L18.3676 15.5452L21.335 17.1429ZM11.9996 17.0264L2.66424 11.9999L5.63176 10.4022L11.5934 13.6114C11.847 13.748 12.1523 13.748 12.406 13.6114L18.3676 10.4022L21.3351 11.9999L11.9996 17.0264Z" fill="#AAAAAA"/>
</svg>
