<svg width="191" height="192" viewBox="0 0 191 192" fill="none" xmlns="http://www.w3.org/2000/svg">
<path d="M183.938 55.375C185.924 55.375 187.486 56.0846 188.621 57.5039C190.04 58.6393 190.75 60.2005 190.75 62.1875V75.8125C190.75 77.7995 190.04 79.5026 188.621 80.9219C187.486 82.0573 185.924 82.625 183.938 82.625H6.8125C4.82552 82.625 3.1224 82.0573 1.70312 80.9219C0.567708 79.5026 0 77.7995 0 75.8125V62.1875C0 60.2005 0.567708 58.6393 1.70312 57.5039C3.1224 56.0846 4.82552 55.375 6.8125 55.375H183.938ZM183.938 164.375C185.924 164.375 187.486 165.085 188.621 166.504C190.04 167.639 190.75 169.201 190.75 171.188V184.812C190.75 186.799 190.04 188.361 188.621 189.496C187.486 190.915 185.924 191.625 183.938 191.625H6.8125C4.82552 191.625 3.1224 190.915 1.70312 189.496C0.567708 188.361 0 186.799 0 184.812V171.188C0 169.201 0.567708 167.639 1.70312 166.504C3.1224 165.085 4.82552 164.375 6.8125 164.375H183.938ZM45.9844 28.125C44.5651 28.125 43.2878 27.6992 42.1523 26.8477C41.3008 25.7122 40.875 24.4349 40.875 23.0156V5.98438C40.875 4.5651 41.3008 3.42969 42.1523 2.57812C43.2878 1.44271 44.5651 0.875 45.9844 0.875H144.766C146.185 0.875 147.32 1.44271 148.172 2.57812C149.307 3.42969 149.875 4.5651 149.875 5.98438V23.0156C149.875 24.4349 149.307 25.7122 148.172 26.8477C147.32 27.6992 146.185 28.125 144.766 28.125H45.9844ZM144.766 137.125H45.9844C44.5651 137.125 43.2878 136.699 42.1523 135.848C41.3008 134.712 40.875 133.435 40.875 132.016V114.984C40.875 113.565 41.3008 112.43 42.1523 111.578C43.2878 110.443 44.5651 109.875 45.9844 109.875H144.766C146.185 109.875 147.32 110.443 148.172 111.578C149.307 112.43 149.875 113.565 149.875 114.984V132.016C149.875 133.435 149.307 134.712 148.172 135.848C147.32 136.699 146.185 137.125 144.766 137.125Z" fill="#2F0877"/>
</svg>
