<svg width="22" height="23" viewBox="0 0 22 23" fill="none" xmlns="http://www.w3.org/2000/svg">
<g clip-path="url(#clip0_99_4040)">
<path d="M14.4707 4.41015C14.4681 4.40568 14.4653 4.40134 14.4622 4.39718C14.4314 4.38082 14.3983 4.3701 14.3672 4.35453C14.1416 4.24121 13.9117 4.13867 13.6775 4.04689C13.6134 4.02185 13.5495 3.99734 13.4849 3.97385C13.2482 3.88807 13.0078 3.81372 12.7639 3.75085C12.7189 3.7392 12.6753 3.72553 12.6305 3.71438C12.0353 3.57105 11.4257 3.49638 10.8136 3.49188C10.789 3.49159 10.7643 3.49332 10.7392 3.49326C10.4679 3.49377 10.1968 3.50813 9.9269 3.53636C9.86663 3.54404 9.81146 3.55036 9.75531 3.55977C9.51784 3.58989 9.28188 3.63056 9.04746 3.68175C8.97806 3.69665 8.90839 3.71105 8.83901 3.72849C8.61119 3.78512 8.38912 3.85291 8.16581 3.92969C8.09801 3.95276 8.02966 3.97223 7.96211 3.99709C7.39253 4.20571 6.85032 4.48251 6.34726 4.82149C6.28754 4.86161 6.23168 4.90555 6.1732 4.94694C5.98007 5.08277 5.79285 5.22392 5.6154 5.37419C5.56058 5.42015 5.50806 5.46813 5.45528 5.51561C5.27494 5.67611 5.10364 5.84336 4.94132 6.01738C4.89923 6.06067 4.86176 6.10165 4.82172 6.14263C4.6406 6.34463 4.4699 6.55579 4.31038 6.77527C4.29571 6.79558 4.27978 6.81462 4.26563 6.83471C3.90851 7.33368 3.6099 7.87198 3.37564 8.43909C3.35835 8.48191 3.34389 8.52524 3.32687 8.5686C3.23341 8.80456 3.15266 9.04282 3.08464 9.28332C3.06578 9.34943 3.04816 9.41554 3.03084 9.48214C2.96725 9.72552 2.91545 9.97187 2.87547 10.2212C2.86988 10.2555 2.85917 10.2885 2.85432 10.3231C2.85426 10.3287 2.85455 10.3344 2.85522 10.34C2.35558 13.6972 4.04242 17.0014 7.05463 18.5658C7.05876 18.5696 7.06314 18.5732 7.06776 18.5764C7.09856 18.5928 7.13163 18.6035 7.16271 18.6191C7.38795 18.7326 7.61783 18.8351 7.85242 18.9267C7.91653 18.9518 7.98041 18.9763 8.04501 18.9998C8.28211 19.0854 8.52242 19.1597 8.76597 19.2228C8.81106 19.2344 8.85463 19.2481 8.89946 19.2592C9.49458 19.4026 10.1042 19.4772 10.7163 19.4817C10.7409 19.482 10.7656 19.4803 10.7907 19.4804C11.062 19.4798 11.3331 19.4655 11.603 19.4373C11.6633 19.4296 11.7185 19.4233 11.7746 19.4138C12.0121 19.3837 12.248 19.3431 12.4825 19.2919C12.5519 19.277 12.6215 19.2626 12.6909 19.2451C12.9187 19.1885 13.1408 19.1207 13.3641 19.0439C13.4319 19.0209 13.5003 19.0014 13.5678 18.9765C14.1374 18.7679 14.6796 18.4911 15.1826 18.1521C15.2424 18.112 15.2982 18.0681 15.3567 18.0267C15.5498 17.8908 15.7371 17.7497 15.9145 17.5994C15.9693 17.5535 16.0219 17.5055 16.0746 17.458C16.2553 17.2973 16.4266 17.1301 16.5886 16.9562C16.6307 16.9129 16.6682 16.872 16.7082 16.831C16.8893 16.629 17.06 16.4178 17.2195 16.1983C17.2342 16.178 17.2501 16.159 17.2643 16.1389C17.6196 15.6405 17.9167 15.1029 18.1497 14.5369C18.167 14.494 18.1814 14.4507 18.1984 14.4074C18.2921 14.1717 18.3728 13.9335 18.4407 13.6926C18.4595 13.6265 18.4772 13.5604 18.4945 13.4938C18.5579 13.2501 18.6097 13.0037 18.6498 12.7548C18.6554 12.7205 18.6661 12.6874 18.671 12.6528C18.671 12.6472 18.6708 12.6416 18.6701 12.636C19.1698 9.27876 17.4829 5.97456 14.4707 4.41015ZM14.3816 5.66991C15.2778 6.2232 16.0333 6.97706 16.5885 7.87212L13.539 9.4289C13.192 8.84135 12.7894 8.28848 12.3368 7.77787C13.1158 7.1768 13.8045 6.46688 14.3816 5.66991ZM9.01334 4.85695C9.04524 4.84901 9.07739 4.84415 9.10928 4.83621C9.31338 4.78594 9.51906 4.74253 9.7269 4.71344C9.75857 4.70882 9.79049 4.70602 9.82192 4.70216C10.0282 4.67385 10.2354 4.65346 10.4426 4.64201C10.4792 4.64068 10.516 4.64114 10.5525 4.63981C10.7538 4.63422 10.9544 4.63679 11.1546 4.64756L11.2879 4.65719C11.4802 4.67195 11.6717 4.69504 11.8624 4.72652C11.9112 4.73427 11.9596 4.74106 12.0093 4.7516C12.197 4.78411 12.3827 4.82686 12.5664 4.87987C12.614 4.89277 12.6625 4.90464 12.7101 4.91881C12.9036 4.97598 13.0946 5.0434 13.2839 5.11749C13.3082 5.1275 13.3328 5.13547 13.3567 5.1445C12.8351 5.82492 12.2246 6.4323 11.5415 6.95039C10.7046 6.17088 9.77856 5.49288 8.78269 4.93048C8.85987 4.9071 8.93582 4.87731 9.01334 4.85695ZM8.48732 12.0078C8.24626 11.4365 8.06151 10.843 7.93567 10.2358C8.54746 10.0099 9.14516 9.74755 9.72568 9.45032C10.307 9.15333 10.8701 8.82193 11.412 8.45788C11.8301 8.91694 12.2024 9.4158 12.5234 9.94736L8.48732 12.0078ZM13.0432 10.9656C13.2842 11.5369 13.469 12.1304 13.5948 12.7376C12.9831 12.9635 12.3853 13.2258 11.8048 13.5231C11.2231 13.8192 10.6596 14.1497 10.1172 14.5129C9.69966 14.0546 9.32787 13.5566 9.00709 13.026L13.0432 10.9656ZM7.81594 5.70958C8.81448 6.23493 9.74486 6.88074 10.5862 7.63252C10.1405 7.92316 9.67976 8.19009 9.20588 8.4322C8.73217 8.67332 8.24616 8.88955 7.74984 9.0799C7.6352 7.95789 7.6574 6.82616 7.81594 5.70958ZM4.12965 9.79017C4.18016 9.59366 4.23808 9.39916 4.30525 9.20893C4.32173 9.16201 4.34053 9.11582 4.35802 9.06966C4.42522 8.89119 4.49951 8.71571 4.58087 8.54324C4.60223 8.4983 4.62563 8.4562 4.64673 8.40951C4.73323 8.23701 4.82682 8.06834 4.92752 7.90355L4.99788 7.78998C5.10623 7.62088 5.22184 7.4568 5.34474 7.29779C5.36725 7.26896 5.38847 7.23887 5.41098 7.21004C5.54101 7.0474 5.67904 6.89157 5.82376 6.7426C5.84528 6.71943 5.86427 6.69623 5.88859 6.67227C6.03509 6.52303 6.18987 6.38242 6.35027 6.24405C6.3754 6.22287 6.3982 6.19969 6.4241 6.17875C6.48605 6.12788 6.55472 6.08383 6.61897 6.03498C6.49022 7.17169 6.49618 8.31962 6.6366 9.45494C5.81634 9.70433 4.9663 9.84257 4.1093 9.86595C4.11549 9.84038 4.12346 9.81577 4.12965 9.79017ZM3.933 11.004C4.91679 11.0041 5.8955 10.8628 6.83911 10.5845C6.98738 11.2505 7.1992 11.9008 7.4717 12.5264L4.42227 14.0831C4.02299 13.1085 3.85551 12.0544 3.933 11.004ZM7.14896 17.3035C6.25274 16.7502 5.49726 15.9964 4.94206 15.1013L7.99149 13.5445C8.33852 14.1321 8.7411 14.6849 9.19374 15.1955C8.4147 15.7966 7.72606 16.5065 7.14896 17.3035ZM12.5172 18.1164C12.4853 18.1244 12.4531 18.1292 12.4212 18.1372C12.2171 18.1874 12.0115 18.2309 11.8036 18.2599C11.7719 18.2646 11.74 18.2674 11.7086 18.2712C11.5023 18.2995 11.2951 18.3199 11.0879 18.3314C11.0513 18.3327 11.0145 18.3322 10.978 18.3336C10.7768 18.3392 10.5761 18.3366 10.3759 18.3258L10.2426 18.3162C10.0503 18.3014 9.85878 18.2783 9.66816 18.2469C9.61926 18.2391 9.5709 18.2323 9.52122 18.2218C9.33349 18.1893 9.14779 18.1465 8.96414 18.0935C8.91649 18.0806 8.86806 18.0688 8.8204 18.0546C8.62692 17.9974 8.43592 17.93 8.24663 17.8559C8.22227 17.8459 8.19767 17.8379 8.1738 17.8289C8.69542 17.1485 9.30592 16.5411 9.989 16.023C10.8259 16.8025 11.752 17.4805 12.7478 18.0429C12.6706 18.0663 12.5947 18.0961 12.5172 18.1164ZM13.7146 17.2639C12.716 16.7385 11.7856 16.0927 10.9443 15.3409C11.8353 14.7581 12.7863 14.2726 13.7809 13.8928L13.7806 13.8935C13.8953 15.0155 13.8731 16.1472 13.7146 17.2639ZM17.4009 13.1832C17.3504 13.3797 17.2924 13.5742 17.2253 13.7645C17.2088 13.8114 17.19 13.8576 17.1725 13.9037C17.1055 14.0826 17.0312 14.258 16.9496 14.4302C16.9283 14.4751 16.9062 14.5197 16.8838 14.5639C16.7973 14.7364 16.7037 14.9051 16.603 15.0698L16.5326 15.1834C16.4244 15.352 16.3088 15.5161 16.1858 15.6756C16.1633 15.7044 16.142 15.7345 16.1195 15.7633C15.9895 15.926 15.8515 16.0818 15.7068 16.2308C15.6852 16.254 15.6662 16.2772 15.6419 16.3011C15.4954 16.4504 15.3406 16.591 15.1802 16.7293C15.1551 16.7505 15.1323 16.7737 15.1064 16.7946C15.0445 16.8455 14.9758 16.8896 14.9115 16.9384C15.0401 15.802 15.0341 14.6543 14.8936 13.5192C15.7139 13.2698 16.5639 13.1316 17.4209 13.1082C17.415 13.133 17.407 13.1576 17.4009 13.1832ZM17.5975 11.9694C16.6137 11.9693 15.635 12.1106 14.6914 12.3889C14.5431 11.7229 14.3313 11.0726 14.0588 10.4471L17.1083 8.89029C17.5075 9.86492 17.675 10.919 17.5975 11.9694Z" fill="white"/>
</g>
<defs>
<clipPath id="clip0_99_4040">
<rect width="16" height="16" fill="white" transform="translate(0 8) rotate(-27.0449)"/>
</clipPath>
</defs>
</svg>
