<svg width="192" height="191" viewBox="0 0 192 191" fill="none" xmlns="http://www.w3.org/2000/svg">
<path d="M6.29241 136.429C4.87128 136.429 3.59226 135.86 2.45536 134.723C1.31845 133.586 0.75 132.307 0.75 130.886V114.685C0.75 113.264 1.31845 111.985 2.45536 110.848C3.59226 109.711 4.87128 109.143 6.29241 109.143H117.993C119.414 109.143 120.693 109.711 121.83 110.848C122.967 111.985 123.536 113.264 123.536 114.685V130.886C123.536 132.307 122.967 133.586 121.83 134.723C120.693 135.86 119.414 136.429 117.993 136.429H6.29241ZM6.29241 27.2857C4.87128 27.2857 3.59226 26.7173 2.45536 25.5804C1.31845 24.4435 0.75 23.1644 0.75 21.7433V5.54241C0.75 4.12128 1.31845 2.84226 2.45536 1.70536C3.59226 0.568452 4.87128 0 6.29241 0H117.993C119.414 0 120.693 0.568452 121.83 1.70536C122.967 2.84226 123.536 4.12128 123.536 5.54241V21.7433C123.536 23.1644 122.967 24.4435 121.83 25.5804C120.693 26.7173 119.414 27.2857 117.993 27.2857H6.29241ZM184.929 54.5714C186.918 54.5714 188.481 55.282 189.618 56.7031C191.039 57.84 191.75 59.4033 191.75 61.3929V75.0357C191.75 77.0253 191.039 78.7307 189.618 80.1518C188.481 81.2887 186.918 81.8571 184.929 81.8571H7.57143C5.58185 81.8571 3.87649 81.2887 2.45536 80.1518C1.31845 78.7307 0.75 77.0253 0.75 75.0357V61.3929C0.75 59.4033 1.31845 57.84 2.45536 56.7031C3.87649 55.282 5.58185 54.5714 7.57143 54.5714H184.929ZM184.929 163.714C186.918 163.714 188.481 164.425 189.618 165.846C191.039 166.983 191.75 168.546 191.75 170.536V184.179C191.75 186.168 191.039 187.731 189.618 188.868C188.481 190.289 186.918 191 184.929 191H7.57143C5.58185 191 3.87649 190.289 2.45536 188.868C1.31845 187.731 0.75 186.168 0.75 184.179V170.536C0.75 168.546 1.31845 166.983 2.45536 165.846C3.87649 164.425 5.58185 163.714 7.57143 163.714H184.929Z" fill="#2F0877"/>
</svg>
