<svg width="18" height="18" viewBox="0 0 18 18" fill="none" xmlns="http://www.w3.org/2000/svg">
<path d="M7.91543 4.67978L5.37818 1.75103C5.08568 1.41353 4.54943 1.41503 4.20968 1.75553L2.12318 3.84578C1.50218 4.46753 1.32443 5.39078 1.68368 6.13103C3.82989 10.5748 7.41371 14.1636 11.8544 16.316C12.5939 16.6753 13.5164 16.4975 14.1374 15.8758L16.2434 13.766C16.5847 13.4248 16.5854 12.8855 16.2449 12.593L13.3049 10.0693C12.9974 9.80528 12.5197 9.83978 12.2114 10.1488L11.1884 11.1733C11.1361 11.2282 11.0671 11.2644 10.9922 11.2763C10.9173 11.2882 10.8405 11.2752 10.7737 11.2393C9.10151 10.2764 7.71442 8.88745 6.75368 7.21403C6.7177 7.14709 6.70467 7.0702 6.71659 6.99515C6.72852 6.92009 6.76473 6.85102 6.81968 6.79853L7.83968 5.77778C8.14868 5.46728 8.18243 4.98728 7.91543 4.67903V4.67978Z" stroke="#757575" stroke-width="1.3" stroke-linecap="round" stroke-linejoin="round"/>
</svg>
