<svg width="218" height="192" viewBox="0 0 218 192" fill="none" xmlns="http://www.w3.org/2000/svg">
<path d="M211.188 82.625C213.174 82.625 214.736 83.3346 215.871 84.7539C217.29 85.8893 218 87.4505 218 89.4375V103.062C218 105.049 217.29 106.753 215.871 108.172C214.736 109.307 213.174 109.875 211.188 109.875H6.8125C4.82552 109.875 3.1224 109.307 1.70312 108.172C0.567708 106.753 0 105.049 0 103.062V89.4375C0 87.4505 0.567708 85.8893 1.70312 84.7539C3.1224 83.3346 4.82552 82.625 6.8125 82.625H50.2422C44.849 74.9609 41.8685 67.013 41.3008 58.7812C41.0169 57.0781 40.875 55.375 40.875 53.6719C40.875 44.0208 43.1458 35.2214 47.6875 27.2734C52.513 19.0417 58.8997 12.6549 66.8477 8.11328C75.0794 3.28776 84.0208 0.875 93.6719 0.875H122.625C131.708 0.875 140.934 3.85547 150.301 9.81641C159.952 15.4935 166.906 22.5898 171.164 31.1055L171.59 31.5312C171.874 32.3828 172.016 33.3763 172.016 34.5117C172.016 37.3503 170.738 39.3372 168.184 40.4727L149.875 49.8398C149.023 50.1237 148.03 50.2656 146.895 50.2656C144.056 50.2656 142.069 49.1302 140.934 46.8594C139.23 43.4531 136.534 40.6146 132.844 38.3438C129.154 36.0729 125.464 34.9375 121.773 34.9375H93.6719C88.5625 34.9375 84.1628 36.7826 80.4727 40.4727C76.7826 44.1628 74.9375 48.5625 74.9375 53.6719C74.9375 57.362 76.2148 60.9102 78.7695 64.3164C81.3242 67.7227 84.4466 69.9935 88.1367 71.1289L125.18 82.625H211.188ZM134.547 123.5H174.57C175.706 126.906 176.415 130.312 176.699 133.719C176.983 135.422 177.125 137.125 177.125 138.828C177.125 153.305 172.016 165.794 161.797 176.297C151.578 186.516 139.089 191.625 124.328 191.625H95.375C89.4141 191.625 83.1693 190.206 76.6406 187.367C70.112 184.812 64.151 181.264 58.7578 176.723C53.6484 171.897 49.6745 166.788 46.8359 161.395L46.4102 160.969C46.1263 160.117 45.9844 159.124 45.9844 157.988C45.9844 155.15 47.2617 153.163 49.8164 152.027L68.125 142.66C68.9766 142.376 69.9701 142.234 71.1055 142.234C73.944 142.234 75.931 143.37 77.0664 145.641C77.918 147.344 79.0534 148.905 80.4727 150.324C81.8919 151.743 83.4531 153.021 85.1562 154.156C86.8594 155.292 88.5625 156.143 90.2656 156.711C92.2526 157.279 94.2396 157.562 96.2266 157.562H124.328C129.438 157.562 133.837 155.717 137.527 152.027C141.217 148.337 143.062 143.938 143.062 138.828C143.062 136.273 142.211 133.435 140.508 130.312C138.805 127.19 136.818 124.919 134.547 123.5Z" fill="#2F0877"/>
</svg>
