<svg width="14" height="14" viewBox="0 0 14 14" fill="none" xmlns="http://www.w3.org/2000/svg">
<path d="M0.714355 1H3.00007L4.5315 8.65143C4.58375 8.91451 4.72687 9.15083 4.93581 9.31903C5.14475 9.48722 5.40618 9.57657 5.67436 9.57143H11.2286C11.4968 9.57657 11.7583 9.48722 11.9672 9.31903C12.1761 9.15083 12.3192 8.91451 12.3715 8.65143L13.2858 3.85714H3.5715M5.85721 12.4286C5.85721 12.7442 5.60138 13 5.28578 13C4.97019 13 4.71436 12.7442 4.71436 12.4286C4.71436 12.113 4.97019 11.8571 5.28578 11.8571C5.60138 11.8571 5.85721 12.113 5.85721 12.4286ZM12.1429 12.4286C12.1429 12.7442 11.8871 13 11.5715 13C11.2559 13 11.0001 12.7442 11.0001 12.4286C11.0001 12.113 11.2559 11.8571 11.5715 11.8571C11.8871 11.8571 12.1429 12.113 12.1429 12.4286Z" stroke="#D6D7DA" stroke-linecap="round" stroke-linejoin="round"/>
</svg>
