<svg width="224" height="181" viewBox="0 0 224 181" fill="none" xmlns="http://www.w3.org/2000/svg">
<path d="M9.23293 0.488078H74.92C78.0898 0.488074 81.1652 1.5665 83.6408 3.5461C86.1164 5.52569 87.8448 8.28865 88.5419 11.3808L121.732 158.599C122.094 160.204 122.101 161.87 121.751 163.478C121.401 165.087 120.704 166.599 119.708 167.91C118.712 169.22 117.441 170.297 115.985 171.065C114.529 171.832 112.922 172.272 111.278 172.353L43.7515 175.68C40.1356 175.858 36.5785 174.714 33.7438 172.463C30.9091 170.211 28.9906 167.005 28.3462 163.442L9.51856 59.3575L8.11787 59.7577L4.51537 40.0297L5.95719 39.6693L0.701748 10.6155C0.476646 9.3711 0.528849 8.09233 0.854633 6.87039C1.18042 5.64845 1.77176 4.51343 2.58651 3.54623C3.40125 2.57904 4.41934 1.8035 5.56818 1.27489C6.71703 0.746285 7.96835 0.477633 9.23293 0.488087V0.488078Z" fill="#3F3D56"/>
<path d="M66.2724 3.66162H73.9401C76.1421 3.66162 78.2779 4.41471 79.9929 5.79588C81.7079 7.17704 82.8989 9.1032 83.3683 11.2546L115.227 157.271C115.41 158.112 115.41 158.982 115.226 159.823C115.042 160.664 114.679 161.455 114.162 162.142C113.644 162.83 112.984 163.397 112.227 163.806C111.47 164.215 110.634 164.456 109.776 164.513L42.4672 168.924C40.5683 169.048 38.6901 168.469 37.1909 167.297C35.6918 166.125 34.6767 164.442 34.3394 162.569L7.15454 11.6468C6.97859 10.67 7.01917 9.66644 7.27342 8.707C7.52767 7.74756 7.98938 6.85561 8.62598 6.0941C9.26258 5.33259 10.0586 4.72007 10.9577 4.29977C11.8569 3.87947 12.8374 3.66164 13.8299 3.66164H21.1039C21.8079 3.66164 22.4923 3.89372 23.0511 4.32197C23.6099 4.75021 24.0119 5.35073 24.1949 6.03054C24.3565 6.63069 24.7114 7.16084 25.2048 7.5389C25.6981 7.91697 26.3023 8.12186 26.9238 8.12186H61.4559C62.673 8.12186 63.8452 7.66247 64.7382 6.83555C65.6311 6.00862 66.1791 4.8751 66.2724 3.66163L66.2724 3.66162Z" fill="white"/>
<path d="M12.3916 28.4888H85.4115L93.1905 63.5398L19.2165 64.9048L12.3916 28.4888Z" fill="#3F8CEC" fill-opacity="0.3"/>
<path d="M81.7327 94.8672H98.9235L99.4695 98.1582H82.2787L81.7327 94.8672Z" fill="#3F8CEC" fill-opacity="0.3"/>
<path d="M95.7196 78.0781L22.812 79.6221L22.8193 79.9652L95.7269 78.4212L95.7196 78.0781Z" fill="#2F2E41"/>
<path d="M97.9494 88.1996L23.6694 89.915L23.6774 90.2581L97.9573 88.5427L97.9494 88.1996Z" fill="#2F2E41"/>
<path d="M88.8306 130.083H106.021L106.567 133.374H89.3766L88.8306 130.083Z" fill="#3F8CEC" fill-opacity="0.3"/>
<path d="M102.818 113.295L29.9099 114.839L29.9172 115.182L102.825 113.638L102.818 113.295Z" fill="#2F2E41"/>
<path d="M105.047 123.416L30.7673 125.132L30.7753 125.475L105.055 123.759L105.047 123.416Z" fill="#2F2E41"/>
<path d="M152.045 176.617L148.793 176.616L147.245 164.07L152.046 164.071L152.045 176.617Z" fill="#A0616A"/>
<path d="M152.875 179.769L142.387 179.769V179.636C142.387 178.554 142.817 177.515 143.583 176.75C144.348 175.984 145.386 175.554 146.469 175.554H146.469L152.875 175.554L152.875 179.769Z" fill="#2F2E41"/>
<path d="M192.453 174.487L189.287 175.232L184.905 163.375L189.578 162.274L192.453 174.487Z" fill="#A0616A"/>
<path d="M193.984 177.366L183.775 179.769L183.744 179.64C183.496 178.586 183.677 177.477 184.246 176.557C184.816 175.636 185.728 174.979 186.782 174.731L186.782 174.731L193.018 173.263L193.984 177.366Z" fill="#2F2E41"/>
<path d="M151.381 123.699C151.387 123.045 151.581 107.615 155.81 101.781L155.873 101.695L170.612 103.728L170.283 106.967C170.931 107.597 176.031 112.926 177.503 125.545L193.148 167.563L185.875 168.224L164.345 122.356L152.951 172.215H145.741L151.381 123.699Z" fill="#2F2E41"/>
<path d="M154.083 102.35L155.524 94.7857C155.242 94.4227 153.993 92.679 154.271 90.6352C154.452 89.3017 155.248 88.1325 156.637 87.159L160.372 78.4449L160.422 78.4154C160.673 78.2672 166.62 74.8288 169.861 78.0728C169.942 78.1356 177.924 84.4713 174.719 93.0181L170.762 104.889L154.083 102.35Z" fill="#CCCCCC"/>
<path d="M149.071 112.584C149.459 112.539 149.833 112.41 150.166 112.206C150.5 112.001 150.784 111.726 150.999 111.399C151.215 111.073 151.356 110.703 151.413 110.317C151.47 109.93 151.442 109.535 151.33 109.16L159.042 103.604L154.425 101.848L147.809 107.394C147.192 107.623 146.681 108.071 146.372 108.653C146.064 109.235 145.979 109.909 146.135 110.549C146.29 111.189 146.675 111.749 147.216 112.124C147.757 112.499 148.417 112.663 149.071 112.584Z" fill="#A0616A"/>
<path d="M150.488 103.595L162.262 94.3181L158.762 82.3586C158.597 81.7923 158.55 81.1981 158.625 80.613C158.7 80.0279 158.894 79.4644 159.196 78.9577C159.475 78.48 159.851 78.0659 160.3 77.7419C160.749 77.418 161.26 77.1914 161.802 77.0766C163.818 76.65 165.647 77.7787 167.239 80.4317L167.251 80.4556C167.515 81.0994 173.649 96.2624 168.965 99.505C164.383 102.677 153.759 107.294 153.652 107.341L153.528 107.394L150.488 103.595Z" fill="#CCCCCC"/>
<path d="M166.137 74.9188C170.076 74.9188 173.269 71.7254 173.269 67.7861C173.269 63.8468 170.076 60.6533 166.137 60.6533C162.197 60.6533 159.004 63.8468 159.004 67.7861C159.004 71.7254 162.197 74.9188 166.137 74.9188Z" fill="#A0616A"/>
<path d="M177.319 65.2399C180.804 65.2399 183.629 62.4147 183.629 58.9298C183.629 55.4448 180.804 52.6196 177.319 52.6196C173.834 52.6196 171.009 55.4448 171.009 58.9298C171.009 62.4147 173.834 65.2399 177.319 65.2399Z" fill="#2F2E41"/>
<path d="M182.762 64.155C181.945 64.7453 180.999 65.1314 180.002 65.281C179.006 65.4307 177.988 65.3395 177.034 65.0151C176.08 64.6907 175.217 64.1425 174.519 63.4164C173.82 62.6903 173.305 61.8074 173.017 60.8416C173.126 61.7071 173.413 62.5407 173.861 63.2896C174.308 64.0386 174.906 64.6867 175.616 65.193C176.326 65.6993 177.134 66.0529 177.988 66.2313C178.842 66.4098 179.723 66.4092 180.577 66.2298C181.431 66.0503 182.238 65.6958 182.947 65.1887C183.657 64.6815 184.254 64.0327 184.7 63.2832C185.147 62.5337 185.433 61.6998 185.541 60.8342C185.649 59.9686 185.576 59.09 185.327 58.2539C185.468 59.3772 185.305 60.5178 184.853 61.5561C184.402 62.5943 183.68 63.492 182.762 64.155Z" fill="#2F2E41"/>
<path d="M157.859 64.162C158.961 62.1898 159.382 61.366 160.803 60.1667C162.059 59.1061 163.604 58.7947 164.85 59.7996C166.324 59.1627 167.964 59.0182 169.527 59.3878C171.09 59.7573 172.492 60.6211 173.525 61.8508C174.557 63.0806 175.166 64.6106 175.26 66.2138C175.354 67.8169 174.928 69.4075 174.046 70.7495C173.164 72.0914 171.872 73.113 170.364 73.6625C168.855 74.212 167.209 74.2601 165.67 73.7997C164.132 73.3393 162.783 72.3949 161.824 71.1068C160.865 69.8187 160.347 68.2556 160.347 66.6497C160.348 66.3677 160.365 66.086 160.398 65.8059C159.315 65.6538 158.943 64.3141 157.859 64.162Z" fill="#2F2E41"/>
<path d="M223.137 180.109H119.126C119.053 180.109 118.984 180.08 118.933 180.029C118.881 179.978 118.853 179.908 118.853 179.836C118.853 179.764 118.881 179.694 118.933 179.643C118.984 179.592 119.053 179.563 119.126 179.563H223.137C223.209 179.563 223.279 179.592 223.33 179.643C223.381 179.694 223.41 179.764 223.41 179.836C223.41 179.908 223.381 179.978 223.33 180.029C223.279 180.08 223.209 180.109 223.137 180.109Z" fill="#3F3D56"/>
</svg>
