<svg width="70" height="70" viewBox="0 0 70 70" fill="none" xmlns="http://www.w3.org/2000/svg">
<rect opacity="0.65" width="70" height="70" rx="11.2621" fill="#FFFBE9"/>
<path d="M26.0114 29.3532L35 33.8475M35 33.8475L43.9886 29.3532M35 33.8475L35 44.7675M30.3571 26.8832L39.6428 31.5261M35.8264 24.9797L43.255 28.6939C43.5644 28.8477 43.8248 29.0847 44.0069 29.3783C44.189 29.672 44.2855 30.0106 44.2857 30.3561V39.2054C44.2855 39.5509 44.189 39.8895 44.0069 40.1831C43.8248 40.4768 43.5644 40.7138 43.255 40.8675L35.8264 44.5818C35.5684 44.7109 35.2839 44.7781 34.9953 44.7781C34.7068 44.7781 34.4223 44.7109 34.1643 44.5818L26.7357 40.8675C26.4266 40.7118 26.1672 40.4728 25.9867 40.1774C25.8062 39.8821 25.7119 39.5422 25.7143 39.1961V30.3561C25.7145 30.0106 25.811 29.672 25.9931 29.3783C26.1752 29.0847 26.4356 28.8477 26.745 28.6939L34.1736 24.9797C34.4304 24.8521 34.7132 24.7856 35 24.7856C35.2868 24.7856 35.5696 24.8521 35.8264 24.9797Z" stroke="#BAA285" stroke-width="2" stroke-linecap="round" stroke-linejoin="round"/>
</svg>
