<svg width="70" height="70" viewBox="0 0 70 70" fill="none" xmlns="http://www.w3.org/2000/svg">
<rect opacity="0.65" width="70" height="70" rx="11.2621" fill="#FFEFE9"/>
<path d="M23.8572 24.7856H27.5715L30.06 37.2192C30.1449 37.6467 30.3775 38.0307 30.717 38.3041C31.0566 38.5774 31.4814 38.7226 31.9172 38.7142H40.9429C41.3787 38.7226 41.8035 38.5774 42.143 38.3041C42.4826 38.0307 42.7151 37.6467 42.8 37.2192L44.2857 29.4285H28.5M32.2143 43.3571C32.2143 43.8699 31.7986 44.2856 31.2857 44.2856C30.7729 44.2856 30.3572 43.8699 30.3572 43.3571C30.3572 42.8442 30.7729 42.4285 31.2857 42.4285C31.7986 42.4285 32.2143 42.8442 32.2143 43.3571ZM42.4286 43.3571C42.4286 43.8699 42.0129 44.2856 41.5 44.2856C40.9872 44.2856 40.5715 43.8699 40.5715 43.3571C40.5715 42.8442 40.9872 42.4285 41.5 42.4285C42.0129 42.4285 42.4286 42.8442 42.4286 43.3571Z" stroke="#BA8585" stroke-width="2" stroke-linecap="round" stroke-linejoin="round"/>
</svg>
