<svg width="70" height="70" viewBox="0 0 70 70" fill="none" xmlns="http://www.w3.org/2000/svg">
<rect opacity="0.65" width="70" height="70" rx="11.2621" fill="#E9FFFE"/>
<path d="M38.7143 43.3574V41.5002C38.7143 40.5151 38.323 39.5704 37.6264 38.8738C36.9299 38.1773 35.9851 37.7859 35.0001 37.7859H28.5001C27.515 37.7859 26.5702 38.1773 25.8737 38.8738C25.1771 39.5704 24.7858 40.5151 24.7858 41.5002V43.3574M42.4286 31.2859V36.8574M45.2143 34.0716H39.6429M35.4643 30.3574C35.4643 32.4087 33.8014 34.0716 31.7501 34.0716C29.6987 34.0716 28.0358 32.4087 28.0358 30.3574C28.0358 28.306 29.6987 26.6431 31.7501 26.6431C33.8014 26.6431 35.4643 28.306 35.4643 30.3574Z" stroke="#85B7BA" stroke-width="2" stroke-linecap="round" stroke-linejoin="round"/>
</svg>
